<svg version="1.1" id="Layer_1" xmlns="http://www.w3.org/2000/svg" xmlns:xlink="http://www.w3.org/1999/xlink" x="0px" y="0px"
	 width="100%" viewBox="0 0 5577 2299" enable-background="new 0 0 5577 2299" xml:space="preserve">
<path fill="#FFFFFF" opacity="1.000000" stroke="none" 
	d="
M4128.000000,2302.000000 
	C2752.000000,2302.000000 1377.000000,2302.000000 2.000000,2302.000000 
	C2.000000,1535.333374 2.000000,768.666687 2.000000,2.000000 
	C1861.333374,2.000000 3720.666748,2.000000 5580.000000,2.000000 
	C5580.000000,768.666687 5580.000000,1535.333374 5580.000000,2302.000000 
	C5096.333496,2302.000000 4612.666504,2302.000000 4128.000000,2302.000000 
M4574.135254,1522.192871 
	C4574.135254,1522.192871 4574.215332,1522.344116 4572.610840,1521.322021 
	C4585.384766,1476.006226 4597.970215,1430.636230 4611.034668,1385.404297 
	C4615.633789,1369.480713 4620.041992,1353.265625 4626.955078,1338.300659 
	C4637.816895,1314.788208 4655.308105,1298.181396 4682.735840,1295.562134 
	C4687.634766,1295.094238 4692.616699,1295.495605 4698.083008,1295.495605 
	C4699.778320,1290.272705 4701.268555,1285.681763 4702.974121,1280.428223 
	C4615.501953,1280.428223 4529.238770,1280.428223 4442.420410,1280.428223 
	C4440.896484,1284.948242 4439.357910,1289.513062 4437.554688,1294.862427 
	C4441.145020,1295.044067 4443.741699,1294.914673 4446.240234,1295.347534 
	C4456.659668,1297.151245 4467.375488,1298.098022 4477.376465,1301.269531 
	C4493.406738,1306.352905 4501.645508,1320.649780 4498.320312,1337.082153 
	C4494.314453,1356.873901 4489.992188,1376.660767 4484.515137,1396.085449 
	C4458.320312,1488.985474 4431.841797,1581.806519 4405.127441,1674.558594 
	C4395.862305,1706.725586 4386.154785,1738.787109 4375.674316,1770.575317 
	C4366.530273,1798.308838 4346.592285,1813.470093 4317.353027,1816.073730 
	C4310.469727,1816.686768 4303.583008,1817.263184 4296.153809,1817.903320 
	C4294.660645,1822.363403 4293.162598,1826.838135 4291.550781,1831.653076 
	C4382.143555,1831.653076 4471.392578,1831.653076 4560.849609,1831.653076 
	C4562.349121,1827.030151 4563.735840,1822.755127 4565.345703,1817.793091 
	C4562.442871,1817.566406 4560.516602,1817.498291 4558.612793,1817.253662 
	C4549.438477,1816.075317 4540.087402,1815.612793 4531.139648,1813.473511 
	C4514.869629,1809.584106 4501.685059,1795.673950 4503.710938,1778.165649 
	C4504.660645,1769.958496 4505.163574,1761.562256 4507.338379,1753.656006 
	C4522.901855,1697.073364 4538.833008,1640.591553 4554.673340,1584.084961 
	C4559.368164,1567.336548 4564.142090,1550.610229 4568.879883,1533.873779 
	C4573.130859,1541.791626 4575.610840,1549.855103 4578.140625,1557.902954 
	C4595.853516,1614.247925 4613.821777,1670.514160 4631.140137,1726.980103 
	C4636.087891,1743.111694 4640.862305,1759.474365 4640.376465,1776.764404 
	C4639.908203,1793.435791 4630.910156,1807.104126 4615.311035,1812.925415 
	C4608.846680,1815.337891 4601.947266,1816.584717 4594.298340,1818.612671 
	C4593.107422,1822.223511 4591.604492,1826.781250 4589.982910,1831.698608 
	C4724.474609,1831.698608 4858.045410,1831.698608 4991.813477,1831.698608 
	C4991.813477,1826.833130 4991.813477,1822.378418 4991.813477,1819.357910 
	C4981.486328,1816.351196 4971.589844,1814.596191 4962.692383,1810.610840 
	C4949.958984,1804.907349 4945.431641,1793.501221 4949.082031,1780.020996 
	C4952.791504,1766.322021 4960.022949,1754.352905 4968.878418,1743.482300 
	C4991.937988,1715.176758 5015.375977,1687.178955 5038.418945,1658.860107 
	C5041.861328,1654.629517 5045.720703,1654.027344 5050.573242,1654.036499 
	C5101.571777,1654.133545 5152.570312,1654.087891 5203.568848,1654.121460 
	C5206.143066,1654.123047 5208.716797,1654.489014 5211.376953,1654.691895 
	C5211.493652,1656.592407 5211.718262,1657.909668 5211.632324,1659.206299 
	C5210.557129,1675.395752 5209.389648,1691.579224 5208.344727,1707.770508 
	C5207.404785,1722.340576 5207.057129,1736.965820 5205.595703,1751.480957 
	C5203.752441,1769.781250 5199.715820,1787.407349 5187.357910,1802.149414 
	C5181.682617,1808.919678 5175.085449,1813.065552 5166.352051,1814.083862 
	C5155.898926,1815.302368 5145.467285,1816.704712 5134.894531,1818.044189 
	C5133.472656,1822.810303 5132.182129,1827.135864 5130.854980,1831.583008 
	C5211.041504,1831.583008 5290.579590,1831.583008 5370.678711,1831.583008 
	C5371.929688,1826.916748 5373.089355,1822.590332 5374.332031,1817.954834 
	C5370.018066,1817.234375 5366.448242,1816.746826 5362.924805,1816.031250 
	C5345.625977,1812.517578 5332.815430,1803.699097 5328.607422,1785.613281 
	C5327.190918,1779.525879 5326.438965,1773.136963 5326.464355,1766.890259 
	C5326.524414,1751.944336 5327.122070,1736.996948 5327.691406,1722.057373 
	C5328.956543,1688.878418 5330.338867,1655.703735 5331.672363,1622.527344 
	C5332.339355,1605.939941 5332.999512,1589.352173 5333.672363,1572.765015 
	C5334.332031,1556.509155 5335.007812,1540.253906 5335.669434,1523.998169 
	C5337.005371,1491.155151 5338.337402,1458.312012 5339.670898,1425.468872 
	C5341.004395,1392.625732 5342.339355,1359.782837 5343.669922,1326.939575 
	C5344.341797,1310.345337 5345.045410,1293.752197 5345.632324,1277.155029 
	C5345.733398,1274.295898 5345.326172,1271.418823 5345.125977,1268.083984 
	C5340.770020,1268.083984 5337.109375,1268.364380 5333.508301,1268.018677 
	C5328.021484,1267.491943 5324.257812,1269.181030 5320.941895,1273.937378 
	C5316.600586,1280.165283 5311.111816,1285.585938 5306.211426,1291.433350 
	C5257.165527,1349.962036 5208.147949,1408.515137 5159.104004,1467.045532 
	C5090.439453,1548.991455 5021.812500,1630.968384 4953.054688,1712.835815 
	C4931.269531,1738.774292 4910.080078,1765.251709 4885.498535,1788.723389 
	C4873.052734,1800.607422 4859.422363,1810.529419 4842.537598,1814.824097 
	C4836.926758,1816.251221 4830.730957,1816.967285 4825.041016,1816.211304 
	C4803.292480,1813.322021 4787.355957,1801.517578 4778.394531,1781.629272 
	C4769.676270,1762.280029 4761.034668,1742.754517 4754.394531,1722.634644 
	C4728.273926,1643.488770 4702.949707,1564.080078 4677.359375,1484.759277 
	C4676.364258,1481.674316 4675.674316,1478.490601 4674.763184,1475.055298 
	C4687.919434,1463.180786 4700.723145,1451.598755 4713.555176,1440.048828 
	C4731.834473,1423.596436 4750.500000,1407.552612 4768.336426,1390.634155 
	C4792.028320,1368.162231 4816.295410,1346.502686 4844.064453,1329.104004 
	C4864.081543,1316.562256 4884.264160,1304.241455 4907.662109,1298.955688 
	C4917.281250,1296.782715 4927.147949,1295.704712 4937.009766,1294.111084 
	C4938.281738,1289.491943 4939.480957,1285.135620 4940.750488,1280.524170 
	C4870.631836,1280.524170 4801.423828,1280.524170 4731.901367,1280.524170 
	C4730.399902,1285.181519 4729.000488,1289.523560 4727.598145,1293.873901 
	C4735.110840,1296.119751 4741.986816,1297.485107 4748.276855,1300.204834 
	C4759.951660,1305.253418 4766.257812,1314.235596 4766.403320,1327.415649 
	C4766.533691,1339.214355 4761.810547,1348.663330 4753.556152,1356.559082 
	C4733.363770,1375.873901 4713.241699,1395.267334 4692.772461,1414.286133 
	C4659.410156,1445.284424 4625.831543,1476.050171 4592.250000,1506.811035 
	C4586.418457,1512.152588 4580.120605,1516.984985 4574.135254,1522.192871 
M1150.611450,1616.492188 
	C1157.792603,1641.742310 1164.806274,1667.041748 1172.216797,1692.224243 
	C1176.763062,1707.673340 1183.354736,1722.206787 1194.754883,1733.982544 
	C1209.834229,1749.558716 1216.912354,1768.263550 1217.800049,1789.745972 
	C1218.099854,1797.001709 1219.063110,1804.359375 1220.814819,1811.398926 
	C1224.579102,1826.526123 1233.216797,1833.868408 1248.776733,1835.533936 
	C1255.027222,1836.203125 1261.405029,1836.015625 1267.708130,1835.776611 
	C1275.328369,1835.487793 1282.922119,1834.471680 1290.542236,1834.221191 
	C1320.570679,1833.233765 1348.281494,1825.612061 1372.180542,1806.552246 
	C1390.214600,1792.170166 1403.041382,1773.736816 1413.878662,1753.684937 
	C1420.075684,1742.218872 1428.020630,1732.389160 1438.575806,1724.328003 
	C1447.081421,1717.831909 1455.380981,1710.360840 1455.964355,1698.201904 
	C1456.059937,1696.210327 1456.172729,1694.218628 1456.327637,1692.230957 
	C1457.654053,1675.217041 1464.663086,1666.382690 1480.923096,1661.052368 
	C1484.702148,1659.813599 1488.458740,1658.468994 1492.127319,1656.937256 
	C1501.078857,1653.199219 1506.893799,1646.603027 1508.339233,1636.963867 
	C1509.466675,1629.445068 1509.906006,1621.800659 1510.260498,1614.193970 
	C1510.709595,1604.557617 1508.046631,1595.783936 1501.894775,1588.201172 
	C1495.773804,1580.656494 1495.246338,1572.508789 1499.723389,1564.102783 
	C1512.538574,1540.041504 1530.195190,1521.432129 1557.288452,1513.604736 
	C1560.476929,1512.683594 1563.569214,1511.339355 1566.806396,1510.696289 
	C1573.571655,1509.352539 1577.802002,1505.284058 1581.156128,1499.447754 
	C1591.074585,1482.189575 1597.222046,1463.642212 1600.062988,1444.067749 
	C1601.822144,1431.947144 1602.606812,1419.679321 1603.648926,1407.462158 
	C1604.976562,1391.898560 1601.737915,1377.813232 1590.173096,1366.385498 
	C1587.115845,1363.364502 1584.110840,1360.068604 1581.991821,1356.376831 
	C1579.401245,1351.864014 1576.402222,1346.916992 1575.981567,1341.954224 
	C1574.776489,1327.735596 1574.205688,1313.401978 1574.508789,1299.137451 
	C1574.731201,1288.673706 1575.520996,1278.165649 1582.941406,1269.190308 
	C1587.968262,1263.110107 1591.333374,1255.646240 1595.369263,1248.758789 
	C1602.922974,1235.867188 1610.028687,1222.691284 1618.085938,1210.124268 
	C1623.451782,1201.755005 1630.165283,1194.252197 1636.238037,1186.332764 
	C1646.028320,1173.565552 1656.735718,1161.806274 1671.116821,1153.979126 
	C1672.545166,1153.201782 1674.097168,1152.250122 1674.996094,1150.963379 
	C1685.868530,1135.397827 1702.648071,1126.375854 1716.240356,1113.828979 
	C1719.407227,1110.905518 1722.298828,1108.579712 1721.637695,1104.095825 
	C1720.409668,1095.767456 1724.702881,1088.780396 1727.662842,1081.825806 
	C1741.589355,1049.106079 1756.466187,1016.790466 1770.356201,984.055725 
	C1772.971191,977.892639 1773.338745,970.493408 1773.477295,963.639099 
	C1773.623291,956.407104 1768.824219,952.424622 1761.417969,952.198486 
	C1751.102295,951.883545 1740.781006,951.759155 1730.463623,951.490845 
	C1721.817017,951.265991 1714.200195,953.920105 1707.114990,958.867920 
	C1701.405640,962.855103 1695.539185,966.783508 1689.288696,969.796509 
	C1675.216187,976.580200 1662.813354,974.343506 1652.050049,963.133179 
	C1647.958130,958.871338 1644.133911,954.015564 1641.484497,948.774902 
	C1635.792603,937.516418 1630.569214,925.982849 1625.849609,914.281433 
	C1620.689331,901.487549 1612.301880,892.239380 1599.295532,887.569519 
	C1588.161255,883.571777 1579.775513,876.383240 1573.655029,866.462158 
	C1569.988403,860.518799 1567.196777,853.972046 1563.083862,848.378967 
	C1548.470093,828.506470 1539.632812,805.948486 1531.930542,782.865051 
	C1523.503540,757.609802 1515.462524,732.233826 1499.955688,710.090637 
	C1496.329834,704.913025 1492.852051,699.600769 1489.727905,694.110413 
	C1485.460693,686.611145 1481.284668,679.025879 1477.682983,671.195312 
	C1475.654419,666.784912 1475.393921,661.558777 1473.348999,657.159302 
	C1471.497925,653.176880 1471.478394,650.269714 1474.878052,647.495056 
	C1478.947021,644.173950 1481.515259,639.804199 1481.812012,634.686157 
	C1482.422119,624.161011 1484.733032,613.798523 1482.517456,603.013794 
	C1479.977661,590.651062 1477.201050,587.054871 1464.948364,585.435730 
	C1463.312012,585.219482 1461.712036,584.411499 1460.095459,584.411865 
	C1451.545654,584.413818 1442.526123,582.221313 1434.893677,587.691040 
	C1430.718384,590.683167 1427.631836,590.370544 1424.513550,586.816650 
	C1419.377686,580.963684 1413.118896,580.722778 1406.248413,582.801025 
	C1403.078491,583.759949 1399.872192,584.713135 1396.613037,585.244080 
	C1376.592041,588.505127 1357.973633,584.863831 1342.055298,572.047852 
	C1336.432495,567.520874 1330.951416,565.052979 1323.964233,565.502625 
	C1310.896362,566.343567 1299.717041,563.875427 1289.716553,553.648621 
	C1279.112915,542.805054 1267.835938,545.734314 1260.602905,559.068787 
	C1255.825195,567.876709 1254.451416,578.599854 1245.817627,585.239685 
	C1245.598511,585.408081 1245.636353,585.876892 1245.481201,586.166382 
	C1240.584229,595.298096 1235.753418,597.167419 1226.029175,594.104492 
	C1212.348877,589.795593 1200.879883,581.868591 1190.861084,571.966064 
	C1179.062500,560.304382 1166.391968,551.627747 1148.663330,553.294312 
	C1144.558838,553.680176 1140.085083,552.189941 1136.041870,550.803040 
	C1121.474731,545.806091 1114.924316,533.437256 1118.581299,517.288696 
	C1120.706665,507.902649 1123.877930,498.758331 1126.308105,489.434723 
	C1127.945557,483.152283 1126.388184,480.585754 1120.086914,479.900330 
	C1106.571411,478.430115 1093.030518,476.815094 1079.460815,476.309753 
	C1058.594971,475.532684 1037.752075,474.310699 1016.800354,475.296722 
	C996.152283,476.268463 975.802246,478.270294 955.613953,482.886078 
	C939.896790,486.479645 924.270203,492.484314 907.604919,487.708740 
	C905.798157,487.191010 903.646851,488.009338 901.662476,487.954071 
	C893.768494,487.734344 885.835083,489.441742 877.964172,486.404633 
	C875.884949,485.602295 872.226257,487.284668 869.980286,488.827148 
	C863.434021,493.322723 857.154602,498.223358 850.947266,503.186188 
	C848.929565,504.799286 846.981812,506.849731 845.816040,509.118408 
	C840.526123,519.413330 832.543518,527.320984 823.906372,534.696838 
	C817.080505,540.525940 810.332825,546.455505 803.332703,552.069092 
	C798.051331,556.304321 794.860840,561.124695 795.595520,568.272583 
	C796.070068,572.890076 795.644043,577.596558 795.689514,582.262512 
	C795.738525,587.292236 793.916931,591.123596 789.567932,594.030396 
	C780.715698,599.947083 771.849792,605.886841 763.405640,612.359741 
	C752.072266,621.047363 740.413818,629.502075 730.162781,639.373413 
	C702.690430,665.828186 683.690369,698.093750 667.528625,732.392334 
	C659.368713,749.709412 655.519714,767.302063 656.214783,786.290466 
	C656.726501,800.271057 656.159546,814.287720 656.365601,828.283997 
	C656.522522,838.939453 653.698059,848.189209 646.598755,856.464172 
	C640.685852,863.356445 637.493958,871.823059 635.744141,880.837646 
	C632.573608,897.172119 635.070740,913.234680 637.817505,929.268005 
	C638.224060,931.641296 639.878235,934.137024 641.639648,935.887207 
	C652.718384,946.895386 663.966003,957.734375 675.206848,968.578430 
	C684.456482,977.501587 691.765625,987.534424 695.103882,1000.247253 
	C696.698914,1006.321411 698.790161,1012.363159 701.465027,1018.038452 
	C711.228333,1038.752686 727.526855,1053.943237 744.803162,1068.238037 
	C753.564209,1075.487183 762.816772,1081.892090 773.596313,1085.888794 
	C791.165283,1092.402832 808.873596,1090.831787 826.726257,1087.351196 
	C837.145508,1085.319824 847.654236,1083.731812 858.144348,1082.081787 
	C884.792419,1077.890137 911.216980,1072.973511 935.716248,1060.857544 
	C939.549072,1058.962036 943.776794,1057.647583 947.967651,1056.731201 
	C966.334473,1052.713989 981.243958,1059.384888 991.184326,1075.289429 
	C994.695435,1080.907349 998.871704,1086.137817 1003.029053,1091.316650 
	C1008.770508,1098.468506 1015.831055,1100.228760 1025.180908,1098.664307 
	C1034.552856,1097.096191 1044.462280,1097.495850 1053.992554,1098.457397 
	C1064.292969,1099.496704 1067.552124,1104.036743 1068.359863,1114.010010 
	C1069.002319,1121.940186 1069.823730,1129.865356 1070.878174,1137.750977 
	C1073.392334,1156.555054 1071.134888,1174.027832 1058.944946,1189.596191 
	C1050.183960,1200.785278 1051.261963,1205.938843 1062.350464,1214.519287 
	C1080.214966,1228.342896 1094.750000,1244.979980 1105.789307,1264.768921 
	C1119.631958,1289.583374 1130.343018,1315.749268 1138.553955,1342.821899 
	C1149.134521,1377.707397 1144.439697,1411.109863 1126.083008,1442.663696 
	C1122.590576,1448.666870 1119.282471,1454.957031 1117.134277,1461.522217 
	C1113.529663,1472.537964 1110.776123,1483.844849 1108.039795,1495.120239 
	C1107.555786,1497.114990 1108.664307,1499.636597 1109.432007,1501.772949 
	C1116.737793,1522.102905 1124.320312,1542.335693 1131.391724,1562.746094 
	C1133.880859,1569.930542 1134.537720,1577.765015 1137.172241,1584.880371 
	C1140.961670,1595.114746 1145.794189,1604.963013 1150.611450,1616.492188 
M2009.664673,1057.535889 
	C2013.915649,1095.504517 2016.288208,1133.574829 2015.614136,1171.795654 
	C2015.515015,1177.412842 2014.746948,1183.016602 2014.338257,1188.630127 
	C2012.992188,1207.121826 2012.002197,1225.646362 2010.271851,1244.101685 
	C2006.051758,1289.113525 1996.863281,1333.206787 1984.434326,1376.616821 
	C1959.615112,1463.300049 1921.291748,1543.600464 1869.635376,1617.500732 
	C1824.975098,1681.392090 1772.371216,1737.873291 1711.601196,1786.764771 
	C1644.540527,1840.717407 1570.963745,1883.301514 1490.544312,1913.974487 
	C1409.571655,1944.858765 1325.722656,1962.491821 1239.168701,1965.865723 
	C1185.982666,1967.938843 1132.848633,1965.675903 1080.110107,1957.317993 
	C1000.168579,1944.649170 923.645447,1921.009888 850.808899,1885.749390 
	C806.750244,1864.420410 764.886902,1839.287109 725.531128,1810.129028 
	C709.211487,1798.038208 691.553650,1791.323120 670.909851,1791.941284 
	C648.725647,1792.605469 629.793701,1800.698853 614.923828,1816.501953 
	C579.447571,1854.204468 587.908569,1910.734253 625.499878,1938.329834 
	C683.048157,1980.575562 744.109070,2016.789062 809.406555,2045.526245 
	C919.583862,2094.014893 1034.784058,2122.012939 1155.220703,2127.207031 
	C1193.781250,2128.870117 1232.406982,2129.569824 1270.927856,2126.043945 
	C1296.667847,2123.687988 1322.468140,2121.550049 1348.043701,2117.921143 
	C1420.299438,2107.668457 1490.322144,2088.709229 1558.268799,2062.069580 
	C1630.024536,2033.936523 1697.503296,1997.783936 1760.681274,1953.681641 
	C1818.698120,1913.182373 1871.993164,1867.131958 1919.335938,1814.537354 
	C1942.194092,1789.143433 1964.351440,1762.969727 1984.983276,1735.752197 
	C2025.054077,1682.890869 2058.695068,1626.020630 2086.725586,1565.812256 
	C2112.591309,1510.253418 2133.154785,1452.850708 2148.101074,1393.462036 
	C2158.300781,1352.934204 2165.766602,1311.904419 2170.614258,1270.330444 
	C2174.536621,1236.695068 2176.692383,1202.994751 2177.519531,1169.204956 
	C2177.933838,1152.291260 2177.088379,1135.324097 2176.259033,1118.408325 
	C2175.268555,1098.208252 2173.860352,1078.024048 2172.322266,1057.856689 
	C2169.368652,1019.130188 2162.593994,980.994385 2154.313721,943.087891 
	C2139.084229,873.367737 2116.018311,806.281372 2085.728027,741.752380 
	C2051.686768,669.232239 2009.294678,601.839539 1958.470459,539.859253 
	C1944.700317,523.066406 1930.250732,506.830658 1914.660522,488.644806 
	C1913.757690,499.763885 1912.852051,508.537231 1912.369873,517.333801 
	C1911.205566,538.565430 1908.480469,559.550293 1903.359741,580.214111 
	C1900.927246,590.030273 1896.052734,596.046814 1885.123047,598.405029 
	C1861.564209,603.488159 1837.790161,604.612244 1813.895996,605.264771 
	C1810.436523,605.359253 1806.972412,605.277832 1801.730957,605.277832 
	C1803.946655,608.377625 1804.739136,609.732849 1805.762573,610.882629 
	C1861.389526,673.373596 1907.299561,742.216736 1942.136475,818.399231 
	C1968.472900,875.992554 1987.939941,935.770508 2000.022705,997.911499 
	C2003.750366,1017.082825 2006.454468,1036.453247 2009.664673,1057.535889 
M542.674072,687.677734 
	C583.255371,630.295715 630.728088,579.220215 684.482300,534.052246 
	C741.872437,485.829193 804.787903,446.286346 873.170532,415.424957 
	C927.957031,390.699554 984.799133,372.442932 1043.604248,360.245453 
	C1087.912231,351.055023 1132.793701,346.129456 1177.948364,344.415802 
	C1199.516602,343.597260 1221.206421,344.475739 1242.779175,345.688721 
	C1266.619263,347.029144 1290.474609,348.929901 1314.170776,351.830933 
	C1364.447266,357.986115 1413.531128,369.803192 1461.505493,385.936035 
	C1541.568237,412.859558 1615.747070,451.327576 1683.816895,501.359039 
	C1702.989380,515.450745 1723.744019,521.715576 1747.391235,518.161682 
	C1781.628296,513.016174 1812.675293,484.519043 1815.542480,445.098053 
	C1817.816040,413.840210 1805.635864,388.920715 1780.033691,370.361023 
	C1731.137207,334.914825 1679.765869,303.724915 1625.268311,277.595154 
	C1568.403076,250.330170 1509.497192,228.926224 1448.496338,212.967407 
	C1378.770996,194.726151 1307.807861,185.213089 1235.950684,182.382950 
	C1211.387573,181.415512 1186.708374,182.659424 1162.108521,183.589813 
	C1141.880615,184.354858 1121.593750,185.318710 1101.508667,187.685211 
	C1071.515381,191.219116 1041.434082,194.817001 1011.816162,200.577423 
	C913.820374,219.636734 820.960205,253.206055 733.346680,301.292938 
	C638.796448,353.187103 555.465820,419.295258 482.722900,498.720215 
	C446.714417,538.036377 414.438477,580.338684 385.482697,625.180969 
	C342.846680,691.209229 308.692169,761.322510 283.275970,835.663330 
	C263.881866,892.389893 250.099899,950.441223 241.375473,1009.818604 
	C234.795288,1054.602539 231.622467,1099.603882 230.613632,1144.717651 
	C230.013412,1171.559448 232.027634,1198.503296 233.788849,1225.340820 
	C235.308685,1248.500244 237.242828,1271.702515 240.560455,1294.659546 
	C248.076691,1346.669678 259.748108,1397.763062 275.487518,1447.986084 
	C294.463165,1508.535645 319.301147,1566.515747 349.541016,1622.195801 
	C385.262177,1687.968384 428.708466,1748.358765 478.155457,1804.477783 
	C482.821625,1809.773682 487.685974,1814.895020 493.582275,1821.322510 
	C494.413879,1812.030762 495.245148,1804.851440 495.665955,1797.648193 
	C496.965454,1775.405518 499.588776,1753.402344 505.097412,1731.727539 
	C507.734009,1721.353394 513.862915,1716.212158 523.960388,1713.862305 
	C545.078430,1708.947632 566.458740,1706.535645 588.059692,1705.486816 
	C593.469360,1705.224243 598.848511,1704.333618 605.486511,1703.592529 
	C603.507080,1701.168701 602.541931,1699.911377 601.499695,1698.721680 
	C570.535461,1663.378296 541.989014,1626.237915 516.922546,1586.428955 
	C482.355042,1531.530884 454.785400,1473.302124 434.282806,1411.832397 
	C419.232971,1366.710815 408.381775,1320.534058 401.486969,1273.365601 
	C395.466187,1232.176514 393.279327,1190.802124 392.415802,1149.293579 
	C392.285431,1143.026733 393.277893,1136.739380 393.693939,1130.457764 
	C395.031616,1110.260132 396.034393,1090.034546 397.732361,1069.867554 
	C400.662842,1035.062378 407.118652,1000.816956 415.230194,966.878601 
	C428.105652,913.008057 446.502777,861.049622 470.248993,811.039307 
	C490.563141,768.257080 514.272949,727.407166 542.674072,687.677734 
M2478.316650,637.262512 
	C2454.570068,720.826416 2430.953369,804.427612 2406.990234,887.929321 
	C2400.594971,910.214050 2393.780029,932.422302 2386.017578,954.260376 
	C2374.696777,986.109375 2351.892090,1004.108154 2317.858887,1006.971924 
	C2312.337891,1007.436523 2306.744385,1007.037109 2301.261719,1007.037109 
	C2299.350586,1012.660767 2297.879150,1016.990662 2296.143799,1022.096191 
	C2300.633789,1022.096191 2304.275635,1022.096252 2307.917480,1022.096252 
	C2385.913818,1022.096252 2463.910645,1021.993408 2541.906738,1022.138916 
	C2581.970947,1022.213623 2621.425537,1017.470215 2660.239258,1007.732971 
	C2705.281250,996.433289 2746.399414,977.098877 2782.668945,947.661987 
	C2813.141846,922.929871 2838.722412,893.898315 2860.782227,861.613403 
	C2875.615234,839.904602 2889.728516,817.774780 2897.867920,792.487610 
	C2910.020264,754.733398 2913.343262,716.138916 2910.587158,676.585327 
	C2908.196289,642.274475 2900.422119,609.766541 2884.099365,579.510010 
	C2864.523438,543.223755 2835.827393,516.539246 2798.305420,499.301727 
	C2753.683838,478.802307 2706.118896,471.348511 2657.781006,470.424591 
	C2588.143066,469.093536 2518.460693,470.084503 2448.797119,470.084503 
	C2445.882812,470.084503 2442.968506,470.084503 2439.593750,470.084503 
	C2438.046875,475.305298 2436.709717,479.818604 2435.598145,483.570038 
	C2451.580322,486.233276 2466.395996,488.030945 2480.880127,491.298096 
	C2496.401611,494.799286 2504.382080,504.828094 2504.123535,520.520569 
	C2503.927734,532.403625 2503.187988,544.571228 2500.406006,556.059021 
	C2493.933838,582.786743 2486.082031,609.180359 2478.316650,637.262512 
M3666.252686,1603.192261 
	C3669.968262,1590.162231 3673.683594,1577.132202 3677.486084,1563.796997 
	C3686.844238,1563.796997 3695.690918,1563.796997 3705.028320,1563.796997 
	C3730.893066,1653.212036 3756.664062,1742.302490 3782.462158,1831.487061 
	C3840.262207,1831.487061 3897.744385,1831.487061 3955.312988,1831.487061 
	C3955.312988,1826.641968 3955.312988,1822.415405 3955.312988,1817.919922 
	C3949.096924,1817.260132 3943.163086,1816.829590 3937.292236,1815.970459 
	C3917.967529,1813.143433 3902.696289,1804.442261 3894.744629,1785.665283 
	C3890.471436,1775.574829 3885.722168,1765.604004 3882.463379,1755.180298 
	C3870.085938,1715.589844 3858.160400,1675.857300 3846.201904,1636.136963 
	C3838.093750,1609.207275 3830.213379,1582.209229 3822.137207,1554.923950 
	C3824.272949,1553.899048 3825.970703,1552.882446 3827.799805,1552.238159 
	C3843.133301,1546.837158 3858.671387,1541.965576 3873.800781,1536.047729 
	C3898.561279,1526.362305 3920.557861,1512.584839 3937.657471,1491.590820 
	C3962.927490,1460.565552 3975.812256,1425.924072 3970.361572,1385.510376 
	C3964.625977,1342.984131 3941.408936,1313.683594 3902.515381,1296.629028 
	C3875.620361,1284.835693 3846.814941,1280.645630 3817.918213,1280.365967 
	C3735.283691,1279.566284 3652.636230,1280.079712 3569.993896,1280.110352 
	C3567.757568,1280.111084 3565.521484,1280.493408 3562.974854,1280.726074 
	C3561.781250,1285.520020 3560.697266,1289.874756 3559.712402,1293.829834 
	C3572.227295,1296.084229 3584.124756,1297.404175 3595.550537,1300.477173 
	C3613.034912,1305.179810 3619.145020,1315.450439 3618.638184,1333.522949 
	C3618.166260,1350.330811 3613.829346,1366.277344 3609.312256,1382.165039 
	C3578.750977,1489.655273 3548.025146,1597.098999 3517.179443,1704.507812 
	C3510.320801,1728.389893 3504.085693,1752.481445 3493.937256,1775.326904 
	C3483.330078,1799.205444 3465.856201,1813.502808 3439.479492,1816.064331 
	C3432.252197,1816.766235 3425.006592,1817.279297 3417.059082,1817.937988 
	C3415.517822,1822.264648 3413.913574,1826.768555 3412.197021,1831.586914 
	C3501.772949,1831.586914 3590.317383,1831.586914 3679.056641,1831.586914 
	C3680.802490,1826.753662 3682.403320,1822.321899 3684.229004,1817.268066 
	C3679.510498,1817.268066 3676.166016,1817.482178 3672.857178,1817.229492 
	C3660.635986,1816.296387 3648.317627,1815.592041 3636.994629,1810.225098 
	C3625.823242,1804.929932 3619.791748,1796.372192 3619.558350,1783.546875 
	C3619.306152,1769.697876 3622.392578,1756.468384 3626.077393,1743.398560 
	C3639.121338,1697.129150 3652.531982,1650.963135 3666.252686,1603.192261 
M3317.857178,950.924622 
	C3299.052490,961.780273 3279.012939,969.639465 3258.321289,976.107483 
	C3223.885498,986.871765 3188.558838,989.483459 3152.824219,987.896423 
	C3144.644775,987.533081 3136.348877,985.635559 3128.489014,983.206360 
	C3116.885986,979.620178 3112.622559,972.410095 3114.001953,960.434570 
	C3114.644287,954.857666 3115.664307,949.261414 3117.168945,943.856567 
	C3129.617920,899.137939 3142.202148,854.457031 3154.783447,809.775269 
	C3160.783447,788.466736 3166.865723,767.181335 3172.860596,746.062012 
	C3174.435791,745.731445 3175.393555,745.346863 3176.347168,745.357483 
	C3196.319336,745.580566 3216.300049,745.584961 3236.258789,746.242004 
	C3243.819824,746.490906 3251.453369,747.738037 3258.838135,749.456787 
	C3272.744629,752.693604 3285.061279,759.376831 3294.583496,770.082031 
	C3306.666992,783.667297 3309.243408,800.145874 3307.163086,817.663391 
	C3306.251221,825.338928 3305.275879,833.006958 3304.312988,840.812195 
	C3310.081543,840.812195 3314.637207,840.812195 3319.452881,840.812195 
	C3339.887207,769.251526 3360.211426,698.077087 3380.651123,626.497803 
	C3374.270264,626.497803 3369.376221,626.497803 3365.366455,626.497803 
	C3358.275391,637.909119 3351.986572,648.878723 3344.880615,659.290771 
	C3329.390625,681.987488 3308.869873,698.481628 3282.003662,705.376892 
	C3267.299805,709.150757 3252.103271,711.403320 3236.988525,713.063965 
	C3222.495605,714.656311 3207.822021,714.627563 3193.225098,715.241882 
	C3189.712891,715.389709 3186.188965,715.263794 3181.599365,715.263794 
	C3202.053955,643.036255 3222.070557,572.355164 3242.057129,501.779785 
	C3244.345459,501.562012 3245.654785,501.304932 3246.958008,501.332764 
	C3277.213135,501.979492 3307.507812,501.919678 3337.707275,503.585266 
	C3358.249268,504.718201 3378.631104,508.328735 3396.983154,518.905945 
	C3419.511719,531.890198 3436.237549,549.534241 3441.422607,575.847900 
	C3443.456055,586.166687 3444.003906,596.778137 3445.264404,607.563843 
	C3450.375244,607.563843 3455.523438,607.563843 3460.916260,607.563843 
	C3472.738281,561.708435 3484.446533,516.294983 3496.231689,470.582581 
	C3347.851562,470.582581 3200.666016,470.582581 3052.634766,470.582581 
	C3052.584961,475.703003 3048.636963,479.624542 3049.508057,483.733765 
	C3063.171387,486.276031 3075.893311,488.362122 3088.483887,491.061676 
	C3102.229736,494.008911 3110.170654,507.818085 3109.792480,519.798706 
	C3109.262695,536.602539 3105.008789,552.576233 3100.472412,568.524048 
	C3066.994873,686.210693 3033.499023,803.892212 2999.858643,921.532288 
	C2994.473389,940.364319 2988.146240,958.856750 2978.173828,975.956970 
	C2969.406250,990.990906 2956.592285,1000.270203 2939.866455,1003.706177 
	C2928.557129,1006.029297 2916.953125,1006.916321 2904.341309,1008.597534 
	C2903.161621,1012.079041 2901.610596,1016.656799 2899.887207,1021.742432 
	C3057.896973,1021.742432 3215.094482,1021.742432 3372.694092,1021.742432 
	C3391.631592,971.845520 3410.500977,922.128296 3429.437256,872.234375 
	C3418.071045,869.770325 3410.490479,871.739319 3403.103271,880.554504 
	C3379.446533,908.783386 3351.453613,932.197876 3317.857178,950.924622 
M3301.000000,1280.082153 
	C3211.474609,1280.082153 3121.949463,1280.082153 3032.242920,1280.082153 
	C3030.789062,1285.341431 3029.586182,1289.692383 3028.195068,1294.724121 
	C3031.629883,1294.956787 3034.250244,1294.880127 3036.769043,1295.348145 
	C3048.135010,1297.460327 3059.890137,1298.510620 3070.718506,1302.232422 
	C3085.696045,1307.380127 3093.304932,1321.692017 3090.121582,1337.143677 
	C3086.446045,1354.985229 3082.215332,1372.755981 3077.251465,1390.281494 
	C3048.883789,1490.441528 3020.300049,1590.540405 2991.613037,1690.609497 
	C2984.763672,1714.501709 2977.940674,1738.446045 2969.732178,1761.885254 
	C2965.614990,1773.642334 2959.526855,1785.107544 2952.327393,1795.288452 
	C2942.763672,1808.812012 2927.510742,1813.666138 2911.682129,1815.922852 
	C2903.576172,1817.078613 2895.338379,1817.309814 2886.849365,1817.983521 
	C2885.586670,1822.666382 2884.421631,1826.987183 2883.123535,1831.801880 
	C2975.607422,1831.801880 3067.177002,1831.801880 3159.159668,1831.801880 
	C3160.614990,1827.167969 3162.019531,1822.695923 3163.725342,1817.264526 
	C3157.638428,1817.264526 3152.625977,1817.764404 3147.750244,1817.160400 
	C3137.610352,1815.904419 3127.309326,1814.922974 3117.500977,1812.258911 
	C3103.245361,1808.386963 3095.611328,1798.333862 3094.117920,1783.385864 
	C3092.968750,1771.887207 3095.043457,1760.899780 3098.092285,1750.024292 
	C3113.398926,1695.421875 3128.800781,1640.846313 3144.236572,1586.280151 
	C3147.537354,1574.611450 3151.116455,1563.021484 3154.565430,1551.401489 
	C3181.846191,1550.961792 3208.004883,1552.094849 3234.048096,1555.821899 
	C3248.308838,1557.863037 3259.556152,1564.738281 3268.162109,1576.093994 
	C3279.029297,1590.432983 3281.142822,1607.067505 3280.028076,1624.299438 
	C3279.442139,1633.358398 3277.847412,1642.352173 3276.659424,1651.763672 
	C3282.524902,1651.763672 3287.786621,1651.763672 3293.738525,1651.763672 
	C3314.387207,1579.492065 3335.038086,1507.212891 3355.808838,1434.513916 
	C3349.547363,1434.513916 3343.998779,1434.513916 3338.418701,1434.513916 
	C3336.748779,1437.805664 3335.329590,1440.815552 3333.729492,1443.725830 
	C3311.108154,1484.867676 3277.251709,1509.935425 3230.089844,1515.559814 
	C3218.583252,1516.932007 3206.964111,1517.554688 3195.376465,1517.997192 
	C3184.889648,1518.397583 3174.375732,1518.081543 3162.820801,1518.081543 
	C3182.823486,1448.393188 3202.449951,1380.015381 3222.171875,1311.304688 
	C3226.400391,1311.304688 3229.700684,1311.276245 3233.000732,1311.309204 
	C3258.637695,1311.565552 3284.304443,1311.172241 3309.900879,1312.330078 
	C3327.064453,1313.106567 3344.474121,1314.574829 3361.166016,1318.391235 
	C3398.363037,1326.895996 3421.844238,1349.817993 3428.155273,1388.415649 
	C3430.171387,1400.744385 3431.714355,1413.150635 3433.488525,1425.626709 
	C3438.668213,1425.626709 3443.884521,1425.626709 3449.086914,1425.626709 
	C3461.341309,1377.068726 3473.483398,1328.955811 3485.817139,1280.082153 
	C3424.250732,1280.082153 3363.625244,1280.082153 3301.000000,1280.082153 
M2789.671875,1466.746826 
	C2789.901123,1456.099365 2789.946533,1445.444092 2790.396973,1434.806030 
	C2791.379150,1411.607056 2792.612793,1388.418823 2793.658447,1365.222290 
	C2794.540527,1345.654663 2795.312256,1326.082031 2796.112793,1306.510864 
	C2796.624023,1294.010620 2797.099121,1281.509033 2797.626709,1268.083984 
	C2793.219971,1268.083984 2789.605469,1268.383423 2786.060059,1268.016235 
	C2780.219238,1267.411377 2776.479248,1269.598511 2772.630859,1274.231934 
	C2740.603760,1312.793823 2708.182861,1351.028564 2675.963867,1389.431396 
	C2633.309082,1440.272827 2590.717773,1491.167236 2548.121094,1542.057007 
	C2493.588135,1607.206787 2439.253418,1672.524170 2384.439941,1737.437256 
	C2369.446777,1755.193237 2353.276367,1771.981201 2337.211182,1788.797852 
	C2325.326416,1801.238525 2311.111084,1810.354614 2294.349609,1815.047363 
	C2290.548828,1816.111450 2286.684814,1816.951172 2282.635010,1817.947021 
	C2281.469727,1822.533936 2280.357178,1826.913086 2279.225342,1831.368408 
	C2334.688232,1831.368408 2389.425293,1831.368408 2443.846191,1831.368408 
	C2443.846191,1826.404053 2443.846191,1822.174805 2443.846191,1819.351562 
	C2433.557617,1816.369507 2423.664062,1814.621826 2414.760498,1810.653442 
	C2402.024414,1804.976929 2397.359619,1793.498657 2401.055420,1780.105957 
	C2404.914062,1766.124390 2412.312744,1753.912842 2421.455566,1742.797852 
	C2444.011475,1715.375977 2466.870117,1688.200684 2489.201416,1660.598267 
	C2493.234863,1655.612793 2497.230957,1653.935669 2503.436523,1653.964600 
	C2553.752930,1654.199463 2604.071045,1654.088989 2654.388672,1654.116211 
	C2657.303223,1654.117798 2660.217773,1654.401611 2663.304443,1654.563110 
	C2663.452881,1656.451904 2663.715088,1657.748657 2663.630615,1659.022583 
	C2662.559814,1675.207764 2661.389648,1691.386475 2660.346680,1707.573364 
	C2659.407715,1722.139282 2659.047607,1736.758057 2657.611816,1751.272461 
	C2655.801270,1769.573486 2651.778076,1787.191162 2639.500488,1801.974731 
	C2633.863281,1808.762573 2627.320557,1813.016846 2618.581543,1814.048218 
	C2608.113525,1815.283569 2597.661377,1816.654541 2586.983643,1817.994141 
	C2585.537109,1822.656982 2584.181152,1827.027954 2582.731934,1831.699707 
	C2662.836670,1831.699707 2742.373047,1831.699707 2822.434814,1831.699707 
	C2823.774658,1827.162354 2825.048584,1822.847900 2826.494629,1817.951416 
	C2821.938965,1817.229736 2818.036621,1816.849609 2814.250732,1815.969238 
	C2800.407959,1812.750366 2788.265625,1806.689331 2783.007812,1792.515503 
	C2780.396973,1785.477295 2778.627197,1777.689819 2778.567871,1770.224854 
	C2778.391602,1747.958740 2779.232422,1725.683960 2779.711670,1703.413452 
	C2779.876221,1695.763428 2780.009766,1688.109009 2780.391602,1680.468262 
	C2781.417236,1659.944458 2782.741211,1639.434326 2783.624512,1618.905029 
	C2784.524170,1597.999878 2785.051514,1577.078613 2785.716797,1556.163574 
	C2785.970459,1548.189087 2786.012939,1540.205566 2786.396484,1532.238037 
	C2787.416992,1511.047607 2788.571045,1489.863770 2789.671875,1466.746826 
M3625.655273,744.599854 
	C3625.211670,750.200562 3624.554688,755.793945 3624.361816,761.403259 
	C3623.597900,783.656799 3622.971191,805.915039 3622.310791,828.172058 
	C3622.063965,836.486816 3621.972900,844.807495 3621.622070,853.117554 
	C3620.572754,877.972717 3619.378906,902.821899 3618.341309,927.677551 
	C3617.580322,945.916687 3617.061523,964.166138 3616.270508,982.403870 
	C3615.781982,993.670837 3614.874512,1004.919556 3614.373047,1016.186157 
	C3614.113037,1022.031311 3614.327393,1027.897583 3614.327393,1033.761475 
	C3616.969727,1033.929077 3618.309082,1033.912720 3619.615479,1034.113037 
	C3629.360107,1035.607178 3636.054199,1031.846802 3642.436523,1024.115234 
	C3664.194580,997.757141 3686.724854,972.034973 3709.039795,946.138428 
	C3756.930420,890.561096 3804.890137,835.043213 3852.784912,779.469421 
	C3896.339600,728.931152 3939.777588,678.291870 3983.397217,627.809692 
	C4014.439453,591.883972 4045.484375,555.955383 4076.980225,520.428772 
	C4087.543457,508.514099 4099.126465,497.327576 4114.152344,490.811249 
	C4119.845703,488.342194 4125.734375,486.322449 4131.239258,484.210815 
	C4131.239258,479.423920 4131.239258,475.192566 4131.239258,470.566650 
	C4080.004639,470.566650 4029.205811,470.566650 3978.095215,470.566650 
	C3976.247314,475.347382 3974.527832,479.795929 3973.057129,483.600616 
	C3982.708496,486.727295 3991.456787,488.854614 3999.609619,492.365509 
	C4012.386719,497.867859 4018.229004,508.667725 4014.758301,524.175659 
	C4010.706787,542.279236 4001.017090,557.332825 3989.652832,571.230042 
	C3966.551514,599.480164 3942.916260,627.300232 3919.184570,655.026428 
	C3864.795166,718.570923 3810.225098,781.960815 3755.696045,845.385376 
	C3751.071045,850.764648 3746.201904,855.933594 3741.446045,861.200134 
	C3740.633057,856.432922 3741.440918,852.539246 3741.625000,848.616333 
	C3743.043213,818.444519 3744.318115,788.266052 3745.681396,758.091614 
	C3746.984131,729.268616 3748.410156,700.451111 3749.653320,671.625610 
	C3751.068604,638.808655 3751.836426,605.953796 3753.891602,573.178528 
	C3754.903320,557.045044 3757.175537,540.829102 3760.692871,525.055237 
	C3765.052490,505.502930 3777.133057,491.855255 3797.242920,486.885834 
	C3802.983643,485.467224 3809.054688,485.386108 3816.097168,484.560028 
	C3817.344482,480.389893 3818.783447,475.579559 3820.279053,470.579773 
	C3741.903809,470.579773 3664.692627,470.579773 3587.119141,470.579773 
	C3585.648193,475.282349 3584.288086,479.630310 3582.871582,484.159393 
	C3590.699951,485.589447 3597.897217,486.453827 3604.848145,488.263855 
	C3621.433350,492.582550 3630.547363,502.919067 3632.169189,519.856445 
	C3632.980469,528.329712 3632.518555,536.948792 3632.290771,545.492859 
	C3631.742188,566.079895 3631.045410,586.663452 3630.307861,607.244812 
	C3629.725098,623.506165 3628.893799,639.758850 3628.348877,656.021240 
	C3627.380859,684.903015 3626.545898,713.789368 3625.655273,744.599854 
M4270.307617,1443.400635 
	C4276.283691,1422.686768 4281.836426,1401.838257 4288.372070,1381.302734 
	C4293.388672,1365.541382 4298.986816,1349.892578 4305.498535,1334.696167 
	C4316.273926,1309.550415 4337.019043,1298.068481 4363.340332,1295.425537 
	C4368.191895,1294.938354 4373.133789,1295.355957 4378.248047,1295.355957 
	C4380.280762,1289.928955 4381.977539,1285.399780 4383.851562,1280.396484 
	C4292.916992,1280.396484 4203.013184,1280.396484 4112.809570,1280.396484 
	C4111.537109,1285.260498 4110.331543,1289.867798 4108.978516,1295.039917 
	C4111.672363,1295.158325 4113.326660,1295.080200 4114.931641,1295.325439 
	C4127.360840,1297.222900 4139.976562,1298.375732 4152.154297,1301.327515 
	C4167.396973,1305.022095 4174.075195,1314.838501 4174.360352,1330.301147 
	C4174.671387,1347.202271 4169.873047,1363.189331 4165.340820,1379.105591 
	C4135.112793,1485.267456 4104.651367,1591.363037 4074.123047,1697.438843 
	C4066.795654,1722.898560 4060.188721,1748.594116 4049.565430,1773.015259 
	C4038.547852,1798.341553 4020.127686,1813.473389 3992.199219,1816.068726 
	C3984.655029,1816.769775 3977.094482,1817.296021 3968.904541,1817.953613 
	C3967.693848,1822.430420 3966.479248,1826.922119 3965.131348,1831.906738 
	C4057.377197,1831.906738 4148.291504,1831.906738 4239.779785,1831.906738 
	C4241.116211,1827.375122 4242.450684,1822.849365 4243.727539,1818.519531 
	C4231.152344,1816.927002 4219.570801,1816.124634 4208.306641,1813.789185 
	C4201.321777,1812.341064 4194.360840,1809.328369 4188.220215,1805.636230 
	C4181.033203,1801.314575 4177.791504,1794.151611 4177.565430,1785.419312 
	C4177.249512,1773.238281 4180.252441,1761.688477 4183.471680,1750.219482 
	C4198.614258,1696.277466 4213.999023,1642.403320 4229.300781,1588.506104 
	C4242.881348,1540.671631 4256.467285,1492.838623 4270.307617,1443.400635 
M1742.731689,1487.920654 
	C1739.500366,1487.920654 1736.269043,1487.920654 1733.309814,1487.920654 
	C1728.385986,1501.478271 1721.911865,1512.617554 1707.593750,1516.800049 
	C1704.425659,1517.725342 1701.574951,1519.786987 1698.392944,1520.604004 
	C1692.609497,1522.088745 1688.345825,1525.553467 1684.516724,1529.824219 
	C1676.534668,1538.727295 1668.914673,1547.997803 1660.421387,1556.383423 
	C1655.407959,1561.333252 1654.266846,1566.540771 1654.128296,1573.204102 
	C1653.811279,1588.453369 1652.474121,1603.679077 1651.724731,1618.922974 
	C1651.492554,1623.646240 1649.595215,1627.031860 1645.695557,1629.687256 
	C1642.991699,1631.528442 1638.956299,1633.655884 1638.508911,1636.184937 
	C1636.462402,1647.756836 1635.471802,1659.515747 1633.997803,1672.097168 
	C1638.799072,1671.700806 1641.957397,1671.440063 1644.688721,1671.214478 
	C1650.199463,1686.078613 1647.668213,1701.107300 1644.990845,1715.243164 
	C1652.951660,1714.845825 1660.027100,1714.247925 1667.106689,1714.194458 
	C1678.930542,1714.104980 1687.081055,1708.040894 1693.284058,1698.701538 
	C1696.223877,1694.275146 1698.628662,1689.488159 1701.644043,1685.118652 
	C1705.189453,1679.980957 1706.804443,1674.572388 1706.463867,1668.275146 
	C1706.294556,1665.147461 1706.801147,1661.480957 1708.346069,1658.846436 
	C1716.733643,1644.543823 1725.654297,1630.554565 1734.117798,1616.295044 
	C1736.069458,1613.006958 1737.177368,1609.149536 1738.266113,1605.434692 
	C1739.738770,1600.410889 1740.017456,1594.881470 1742.261719,1590.277588 
	C1745.291504,1584.062744 1746.714966,1577.910034 1746.380005,1571.083374 
	C1746.021118,1563.775879 1746.042847,1556.447388 1746.011353,1549.127563 
	C1746.001953,1546.950928 1746.373291,1544.772705 1746.570312,1542.593018 
	C1751.809204,1542.241089 1756.342407,1541.936523 1762.146240,1541.546631 
	C1762.146240,1537.334839 1762.318237,1533.783203 1762.112061,1530.253540 
	C1761.609985,1521.653564 1760.684204,1513.072632 1760.384888,1504.468018 
	C1759.962524,1492.329956 1757.008301,1489.093140 1742.731689,1487.920654 
z"/>
<path fill="#26AA6A" opacity="1.000000" stroke="none" 
	d="
M1150.396484,1615.734131 
	C1145.794189,1604.963013 1140.961670,1595.114746 1137.172241,1584.880371 
	C1134.537720,1577.765015 1133.880859,1569.930542 1131.391724,1562.746094 
	C1124.320312,1542.335693 1116.737793,1522.102905 1109.432007,1501.772949 
	C1108.664307,1499.636597 1107.555786,1497.114990 1108.039795,1495.120239 
	C1110.776123,1483.844849 1113.529663,1472.537964 1117.134277,1461.522217 
	C1119.282471,1454.957031 1122.590576,1448.666870 1126.083008,1442.663696 
	C1144.439697,1411.109863 1149.134521,1377.707397 1138.553955,1342.821899 
	C1130.343018,1315.749268 1119.631958,1289.583374 1105.789307,1264.768921 
	C1094.750000,1244.979980 1080.214966,1228.342896 1062.350464,1214.519287 
	C1051.261963,1205.938843 1050.183960,1200.785278 1058.944946,1189.596191 
	C1071.134888,1174.027832 1073.392334,1156.555054 1070.878174,1137.750977 
	C1069.823730,1129.865356 1069.002319,1121.940186 1068.359863,1114.010010 
	C1067.552124,1104.036743 1064.292969,1099.496704 1053.992554,1098.457397 
	C1044.462280,1097.495850 1034.552856,1097.096191 1025.180908,1098.664307 
	C1015.831055,1100.228760 1008.770508,1098.468506 1003.029053,1091.316650 
	C998.871704,1086.137817 994.695435,1080.907349 991.184326,1075.289429 
	C981.243958,1059.384888 966.334473,1052.713989 947.967651,1056.731201 
	C943.776794,1057.647583 939.549072,1058.962036 935.716248,1060.857544 
	C911.216980,1072.973511 884.792419,1077.890137 858.144348,1082.081787 
	C847.654236,1083.731812 837.145508,1085.319824 826.726257,1087.351196 
	C808.873596,1090.831787 791.165283,1092.402832 773.596313,1085.888794 
	C762.816772,1081.892090 753.564209,1075.487183 744.803162,1068.238037 
	C727.526855,1053.943237 711.228333,1038.752686 701.465027,1018.038452 
	C698.790161,1012.363159 696.698914,1006.321411 695.103882,1000.247253 
	C691.765625,987.534424 684.456482,977.501587 675.206848,968.578430 
	C663.966003,957.734375 652.718384,946.895386 641.639648,935.887207 
	C639.878235,934.137024 638.224060,931.641296 637.817505,929.268005 
	C635.070740,913.234680 632.573608,897.172119 635.744141,880.837646 
	C637.493958,871.823059 640.685852,863.356445 646.598755,856.464172 
	C653.698059,848.189209 656.522522,838.939453 656.365601,828.283997 
	C656.159546,814.287720 656.726501,800.271057 656.214783,786.290466 
	C655.519714,767.302063 659.368713,749.709412 667.528625,732.392334 
	C683.690369,698.093750 702.690430,665.828186 730.162781,639.373413 
	C740.413818,629.502075 752.072266,621.047363 763.405640,612.359741 
	C771.849792,605.886841 780.715698,599.947083 789.567932,594.030396 
	C793.916931,591.123596 795.738525,587.292236 795.689514,582.262512 
	C795.644043,577.596558 796.070068,572.890076 795.595520,568.272583 
	C794.860840,561.124695 798.051331,556.304321 803.332703,552.069092 
	C810.332825,546.455505 817.080505,540.525940 823.906372,534.696838 
	C832.543518,527.320984 840.526123,519.413330 845.816040,509.118408 
	C846.981812,506.849731 848.929565,504.799286 850.947266,503.186188 
	C857.154602,498.223358 863.434021,493.322723 869.980286,488.827148 
	C872.226257,487.284668 875.884949,485.602295 877.964172,486.404633 
	C885.835083,489.441742 893.768494,487.734344 901.662476,487.954071 
	C903.646851,488.009338 905.798157,487.191010 907.604919,487.708740 
	C924.270203,492.484314 939.896790,486.479645 955.613953,482.886078 
	C975.802246,478.270294 996.152283,476.268463 1016.800354,475.296722 
	C1037.752075,474.310699 1058.594971,475.532684 1079.460815,476.309753 
	C1093.030518,476.815094 1106.571411,478.430115 1120.086914,479.900330 
	C1126.388184,480.585754 1127.945557,483.152283 1126.308105,489.434723 
	C1123.877930,498.758331 1120.706665,507.902649 1118.581299,517.288696 
	C1114.924316,533.437256 1121.474731,545.806091 1136.041870,550.803040 
	C1140.085083,552.189941 1144.558838,553.680176 1148.663330,553.294312 
	C1166.391968,551.627747 1179.062500,560.304382 1190.861084,571.966064 
	C1200.879883,581.868591 1212.348877,589.795593 1226.029175,594.104492 
	C1235.753418,597.167419 1240.584229,595.298096 1245.481201,586.166382 
	C1245.636353,585.876892 1245.598511,585.408081 1245.817627,585.239685 
	C1254.451416,578.599854 1255.825195,567.876709 1260.602905,559.068787 
	C1267.835938,545.734314 1279.112915,542.805054 1289.716553,553.648621 
	C1299.717041,563.875427 1310.896362,566.343567 1323.964233,565.502625 
	C1330.951416,565.052979 1336.432495,567.520874 1342.055298,572.047852 
	C1357.973633,584.863831 1376.592041,588.505127 1396.613037,585.244080 
	C1399.872192,584.713135 1403.078491,583.759949 1406.248413,582.801025 
	C1413.118896,580.722778 1419.377686,580.963684 1424.513550,586.816650 
	C1427.631836,590.370544 1430.718384,590.683167 1434.893677,587.691040 
	C1442.526123,582.221313 1451.545654,584.413818 1460.095459,584.411865 
	C1461.712036,584.411499 1463.312012,585.219482 1464.948364,585.435730 
	C1477.201050,587.054871 1479.977661,590.651062 1482.517456,603.013794 
	C1484.733032,613.798523 1482.422119,624.161011 1481.812012,634.686157 
	C1481.515259,639.804199 1478.947021,644.173950 1474.878052,647.495056 
	C1471.478394,650.269714 1471.497925,653.176880 1473.348999,657.159302 
	C1475.393921,661.558777 1475.654419,666.784912 1477.682983,671.195312 
	C1481.284668,679.025879 1485.460693,686.611145 1489.727905,694.110413 
	C1492.852051,699.600769 1496.329834,704.913025 1499.955688,710.090637 
	C1515.462524,732.233826 1523.503540,757.609802 1531.930542,782.865051 
	C1539.632812,805.948486 1548.470093,828.506470 1563.083862,848.378967 
	C1567.196777,853.972046 1569.988403,860.518799 1573.655029,866.462158 
	C1579.775513,876.383240 1588.161255,883.571777 1599.295532,887.569519 
	C1612.301880,892.239380 1620.689331,901.487549 1625.849609,914.281433 
	C1630.569214,925.982849 1635.792603,937.516418 1641.484497,948.774902 
	C1644.133911,954.015564 1647.958130,958.871338 1652.050049,963.133179 
	C1662.813354,974.343506 1675.216187,976.580200 1689.288696,969.796509 
	C1695.539185,966.783508 1701.405640,962.855103 1707.114990,958.867920 
	C1714.200195,953.920105 1721.817017,951.265991 1730.463623,951.490845 
	C1740.781006,951.759155 1751.102295,951.883545 1761.417969,952.198486 
	C1768.824219,952.424622 1773.623291,956.407104 1773.477295,963.639099 
	C1773.338745,970.493408 1772.971191,977.892639 1770.356201,984.055725 
	C1756.466187,1016.790466 1741.589355,1049.106079 1727.662842,1081.825806 
	C1724.702881,1088.780396 1720.409668,1095.767456 1721.637695,1104.095825 
	C1722.298828,1108.579712 1719.407227,1110.905518 1716.240356,1113.828979 
	C1702.648071,1126.375854 1685.868530,1135.397827 1674.996094,1150.963379 
	C1674.097168,1152.250122 1672.545166,1153.201782 1671.116821,1153.979126 
	C1656.735718,1161.806274 1646.028320,1173.565552 1636.238037,1186.332764 
	C1630.165283,1194.252197 1623.451782,1201.755005 1618.085938,1210.124268 
	C1610.028687,1222.691284 1602.922974,1235.867188 1595.369263,1248.758789 
	C1591.333374,1255.646240 1587.968262,1263.110107 1582.941406,1269.190308 
	C1575.520996,1278.165649 1574.731201,1288.673706 1574.508789,1299.137451 
	C1574.205688,1313.401978 1574.776489,1327.735596 1575.981567,1341.954224 
	C1576.402222,1346.916992 1579.401245,1351.864014 1581.991821,1356.376831 
	C1584.110840,1360.068604 1587.115845,1363.364502 1590.173096,1366.385498 
	C1601.737915,1377.813232 1604.976562,1391.898560 1603.648926,1407.462158 
	C1602.606812,1419.679321 1601.822144,1431.947144 1600.062988,1444.067749 
	C1597.222046,1463.642212 1591.074585,1482.189575 1581.156128,1499.447754 
	C1577.802002,1505.284058 1573.571655,1509.352539 1566.806396,1510.696289 
	C1563.569214,1511.339355 1560.476929,1512.683594 1557.288452,1513.604736 
	C1530.195190,1521.432129 1512.538574,1540.041504 1499.723389,1564.102783 
	C1495.246338,1572.508789 1495.773804,1580.656494 1501.894775,1588.201172 
	C1508.046631,1595.783936 1510.709595,1604.557617 1510.260498,1614.193970 
	C1509.906006,1621.800659 1509.466675,1629.445068 1508.339233,1636.963867 
	C1506.893799,1646.603027 1501.078857,1653.199219 1492.127319,1656.937256 
	C1488.458740,1658.468994 1484.702148,1659.813599 1480.923096,1661.052368 
	C1464.663086,1666.382690 1457.654053,1675.217041 1456.327637,1692.230957 
	C1456.172729,1694.218628 1456.059937,1696.210327 1455.964355,1698.201904 
	C1455.380981,1710.360840 1447.081421,1717.831909 1438.575806,1724.328003 
	C1428.020630,1732.389160 1420.075684,1742.218872 1413.878662,1753.684937 
	C1403.041382,1773.736816 1390.214600,1792.170166 1372.180542,1806.552246 
	C1348.281494,1825.612061 1320.570679,1833.233765 1290.542236,1834.221191 
	C1282.922119,1834.471680 1275.328369,1835.487793 1267.708130,1835.776611 
	C1261.405029,1836.015625 1255.027222,1836.203125 1248.776733,1835.533936 
	C1233.216797,1833.868408 1224.579102,1826.526123 1220.814819,1811.398926 
	C1219.063110,1804.359375 1218.099854,1797.001709 1217.800049,1789.745972 
	C1216.912354,1768.263550 1209.834229,1749.558716 1194.754883,1733.982544 
	C1183.354736,1722.206787 1176.763062,1707.673340 1172.216797,1692.224243 
	C1164.806274,1667.041748 1157.792603,1641.742310 1150.396484,1615.734131 
z"/>
<path fill="#010101" opacity="1.000000" stroke="none" 
	d="
M2009.645996,1056.634155 
	C2006.454468,1036.453247 2003.750366,1017.082825 2000.022705,997.911499 
	C1987.939941,935.770508 1968.472900,875.992554 1942.136475,818.399231 
	C1907.299561,742.216736 1861.389526,673.373596 1805.762573,610.882629 
	C1804.739136,609.732849 1803.946655,608.377625 1801.730957,605.277832 
	C1806.972412,605.277832 1810.436523,605.359253 1813.895996,605.264771 
	C1837.790161,604.612244 1861.564209,603.488159 1885.123047,598.405029 
	C1896.052734,596.046814 1900.927246,590.030273 1903.359741,580.214111 
	C1908.480469,559.550293 1911.205566,538.565430 1912.369873,517.333801 
	C1912.852051,508.537231 1913.757690,499.763885 1914.660522,488.644806 
	C1930.250732,506.830658 1944.700317,523.066406 1958.470459,539.859253 
	C2009.294678,601.839539 2051.686768,669.232239 2085.728027,741.752380 
	C2116.018311,806.281372 2139.084229,873.367737 2154.313721,943.087891 
	C2162.593994,980.994385 2169.368652,1019.130188 2172.322266,1057.856689 
	C2173.860352,1078.024048 2175.268555,1098.208252 2176.259033,1118.408325 
	C2177.088379,1135.324097 2177.933838,1152.291260 2177.519531,1169.204956 
	C2176.692383,1202.994751 2174.536621,1236.695068 2170.614258,1270.330444 
	C2165.766602,1311.904419 2158.300781,1352.934204 2148.101074,1393.462036 
	C2133.154785,1452.850708 2112.591309,1510.253418 2086.725586,1565.812256 
	C2058.695068,1626.020630 2025.054077,1682.890869 1984.983276,1735.752197 
	C1964.351440,1762.969727 1942.194092,1789.143433 1919.335938,1814.537354 
	C1871.993164,1867.131958 1818.698120,1913.182373 1760.681274,1953.681641 
	C1697.503296,1997.783936 1630.024536,2033.936523 1558.268799,2062.069580 
	C1490.322144,2088.709229 1420.299438,2107.668457 1348.043701,2117.921143 
	C1322.468140,2121.550049 1296.667847,2123.687988 1270.927856,2126.043945 
	C1232.406982,2129.569824 1193.781250,2128.870117 1155.220703,2127.207031 
	C1034.784058,2122.012939 919.583862,2094.014893 809.406555,2045.526245 
	C744.109070,2016.789062 683.048157,1980.575562 625.499878,1938.329834 
	C587.908569,1910.734253 579.447571,1854.204468 614.923828,1816.501953 
	C629.793701,1800.698853 648.725647,1792.605469 670.909851,1791.941284 
	C691.553650,1791.323120 709.211487,1798.038208 725.531128,1810.129028 
	C764.886902,1839.287109 806.750244,1864.420410 850.808899,1885.749390 
	C923.645447,1921.009888 1000.168579,1944.649170 1080.110107,1957.317993 
	C1132.848633,1965.675903 1185.982666,1967.938843 1239.168701,1965.865723 
	C1325.722656,1962.491821 1409.571655,1944.858765 1490.544312,1913.974487 
	C1570.963745,1883.301514 1644.540527,1840.717407 1711.601196,1786.764771 
	C1772.371216,1737.873291 1824.975098,1681.392090 1869.635376,1617.500732 
	C1921.291748,1543.600464 1959.615112,1463.300049 1984.434326,1376.616821 
	C1996.863281,1333.206787 2006.051758,1289.113525 2010.271851,1244.101685 
	C2012.002197,1225.646362 2012.992188,1207.121826 2014.338257,1188.630127 
	C2014.746948,1183.016602 2015.515015,1177.412842 2015.614136,1171.795654 
	C2016.288208,1133.574829 2013.915649,1095.504517 2009.645996,1056.634155 
z"/>
<path fill="#020101" opacity="1.000000" stroke="none" 
	d="
M4574.037598,1522.052490 
	C4580.120605,1516.984985 4586.418457,1512.152588 4592.250000,1506.811035 
	C4625.831543,1476.050171 4659.410156,1445.284424 4692.772461,1414.286133 
	C4713.241699,1395.267334 4733.363770,1375.873901 4753.556152,1356.559082 
	C4761.810547,1348.663330 4766.533691,1339.214355 4766.403320,1327.415649 
	C4766.257812,1314.235596 4759.951660,1305.253418 4748.276855,1300.204834 
	C4741.986816,1297.485107 4735.110840,1296.119751 4727.598145,1293.873901 
	C4729.000488,1289.523560 4730.399902,1285.181519 4731.901367,1280.524170 
	C4801.423828,1280.524170 4870.631836,1280.524170 4940.750488,1280.524170 
	C4939.480957,1285.135620 4938.281738,1289.491943 4937.009766,1294.111084 
	C4927.147949,1295.704712 4917.281250,1296.782715 4907.662109,1298.955688 
	C4884.264160,1304.241455 4864.081543,1316.562256 4844.064453,1329.104004 
	C4816.295410,1346.502686 4792.028320,1368.162231 4768.336426,1390.634155 
	C4750.500000,1407.552612 4731.834473,1423.596436 4713.555176,1440.048828 
	C4700.723145,1451.598755 4687.919434,1463.180786 4674.763184,1475.055298 
	C4675.674316,1478.490601 4676.364258,1481.674316 4677.359375,1484.759277 
	C4702.949707,1564.080078 4728.273926,1643.488770 4754.394531,1722.634644 
	C4761.034668,1742.754517 4769.676270,1762.280029 4778.394531,1781.629272 
	C4787.355957,1801.517578 4803.292480,1813.322021 4825.041016,1816.211304 
	C4830.730957,1816.967285 4836.926758,1816.251221 4842.537598,1814.824097 
	C4859.422363,1810.529419 4873.052734,1800.607422 4885.498535,1788.723389 
	C4910.080078,1765.251709 4931.269531,1738.774292 4953.054688,1712.835815 
	C5021.812500,1630.968384 5090.439453,1548.991455 5159.104004,1467.045532 
	C5208.147949,1408.515137 5257.165527,1349.962036 5306.211426,1291.433350 
	C5311.111816,1285.585938 5316.600586,1280.165283 5320.941895,1273.937378 
	C5324.257812,1269.181030 5328.021484,1267.491943 5333.508301,1268.018677 
	C5337.109375,1268.364380 5340.770020,1268.083984 5345.125977,1268.083984 
	C5345.326172,1271.418823 5345.733398,1274.295898 5345.632324,1277.155029 
	C5345.045410,1293.752197 5344.341797,1310.345337 5343.669922,1326.939575 
	C5342.339355,1359.782837 5341.004395,1392.625732 5339.670898,1425.468872 
	C5338.337402,1458.312012 5337.005371,1491.155151 5335.669434,1523.998169 
	C5335.007812,1540.253906 5334.332031,1556.509155 5333.672363,1572.765015 
	C5332.999512,1589.352173 5332.339355,1605.939941 5331.672363,1622.527344 
	C5330.338867,1655.703735 5328.956543,1688.878418 5327.691406,1722.057373 
	C5327.122070,1736.996948 5326.524414,1751.944336 5326.464355,1766.890259 
	C5326.438965,1773.136963 5327.190918,1779.525879 5328.607422,1785.613281 
	C5332.815430,1803.699097 5345.625977,1812.517578 5362.924805,1816.031250 
	C5366.448242,1816.746826 5370.018066,1817.234375 5374.332031,1817.954834 
	C5373.089355,1822.590332 5371.929688,1826.916748 5370.678711,1831.583008 
	C5290.579590,1831.583008 5211.041504,1831.583008 5130.854980,1831.583008 
	C5132.182129,1827.135864 5133.472656,1822.810303 5134.894531,1818.044189 
	C5145.467285,1816.704712 5155.898926,1815.302368 5166.352051,1814.083862 
	C5175.085449,1813.065552 5181.682617,1808.919678 5187.357910,1802.149414 
	C5199.715820,1787.407349 5203.752441,1769.781250 5205.595703,1751.480957 
	C5207.057129,1736.965820 5207.404785,1722.340576 5208.344727,1707.770508 
	C5209.389648,1691.579224 5210.557129,1675.395752 5211.632324,1659.206299 
	C5211.718262,1657.909668 5211.493652,1656.592407 5211.376953,1654.691895 
	C5208.716797,1654.489014 5206.143066,1654.123047 5203.568848,1654.121460 
	C5152.570312,1654.087891 5101.571777,1654.133545 5050.573242,1654.036499 
	C5045.720703,1654.027344 5041.861328,1654.629517 5038.418945,1658.860107 
	C5015.375977,1687.178955 4991.937988,1715.176758 4968.878418,1743.482300 
	C4960.022949,1754.352905 4952.791504,1766.322021 4949.082031,1780.020996 
	C4945.431641,1793.501221 4949.958984,1804.907349 4962.692383,1810.610840 
	C4971.589844,1814.596191 4981.486328,1816.351196 4991.813477,1819.357910 
	C4991.813477,1822.378418 4991.813477,1826.833130 4991.813477,1831.698608 
	C4858.045410,1831.698608 4724.474609,1831.698608 4589.982910,1831.698608 
	C4591.604492,1826.781250 4593.107422,1822.223511 4594.298340,1818.612671 
	C4601.947266,1816.584717 4608.846680,1815.337891 4615.311035,1812.925415 
	C4630.910156,1807.104126 4639.908203,1793.435791 4640.376465,1776.764404 
	C4640.862305,1759.474365 4636.087891,1743.111694 4631.140137,1726.980103 
	C4613.821777,1670.514160 4595.853516,1614.247925 4578.140625,1557.902954 
	C4575.610840,1549.855103 4573.130859,1541.791626 4568.879883,1533.873779 
	C4564.142090,1550.610229 4559.368164,1567.336548 4554.673340,1584.084961 
	C4538.833008,1640.591553 4522.901855,1697.073364 4507.338379,1753.656006 
	C4505.163574,1761.562256 4504.660645,1769.958496 4503.710938,1778.165649 
	C4501.685059,1795.673950 4514.869629,1809.584106 4531.139648,1813.473511 
	C4540.087402,1815.612793 4549.438477,1816.075317 4558.612793,1817.253662 
	C4560.516602,1817.498291 4562.442871,1817.566406 4565.345703,1817.793091 
	C4563.735840,1822.755127 4562.349121,1827.030151 4560.849609,1831.653076 
	C4471.392578,1831.653076 4382.143555,1831.653076 4291.550781,1831.653076 
	C4293.162598,1826.838135 4294.660645,1822.363403 4296.153809,1817.903320 
	C4303.583008,1817.263184 4310.469727,1816.686768 4317.353027,1816.073730 
	C4346.592285,1813.470093 4366.530273,1798.308838 4375.674316,1770.575317 
	C4386.154785,1738.787109 4395.862305,1706.725586 4405.127441,1674.558594 
	C4431.841797,1581.806519 4458.320312,1488.985474 4484.515137,1396.085449 
	C4489.992188,1376.660767 4494.314453,1356.873901 4498.320312,1337.082153 
	C4501.645508,1320.649780 4493.406738,1306.352905 4477.376465,1301.269531 
	C4467.375488,1298.098022 4456.659668,1297.151245 4446.240234,1295.347534 
	C4443.741699,1294.914673 4441.145020,1295.044067 4437.554688,1294.862427 
	C4439.357910,1289.513062 4440.896484,1284.948242 4442.420410,1280.428223 
	C4529.238770,1280.428223 4615.501953,1280.428223 4702.974121,1280.428223 
	C4701.268555,1285.681763 4699.778320,1290.272705 4698.083008,1295.495605 
	C4692.616699,1295.495605 4687.634766,1295.094238 4682.735840,1295.562134 
	C4655.308105,1298.181396 4637.816895,1314.788208 4626.955078,1338.300659 
	C4620.041992,1353.265625 4615.633789,1369.480713 4611.034668,1385.404297 
	C4597.970215,1430.636230 4585.384766,1476.006226 4572.991211,1521.427124 
	C4573.249023,1522.093262 4573.125977,1522.654419 4573.003418,1523.215576 
	C4573.348145,1522.827881 4573.692871,1522.440186 4574.037598,1522.052490 
M5213.678711,1588.413574 
	C5214.344727,1577.509644 5215.040039,1566.607422 5215.671875,1555.701416 
	C5217.222168,1528.917847 5218.767090,1502.133789 5220.264160,1475.347168 
	C5220.801270,1465.738647 5221.193359,1456.122070 5221.651855,1446.509155 
	C5203.511230,1465.073608 5187.187012,1484.177612 5170.870605,1503.288330 
	C5154.514160,1522.446289 5138.048340,1541.512939 5121.846680,1560.801025 
	C5105.856445,1579.837402 5089.108398,1598.271118 5073.268555,1618.610229 
	C5120.355469,1618.610229 5165.749023,1618.610229 5211.204590,1618.610229 
	C5212.066895,1608.719971 5212.870605,1599.508057 5213.678711,1588.413574 
z"/>
<path fill="#29AB6E" opacity="1.000000" stroke="none" 
	d="
M542.266602,688.268005 
	C514.272949,727.407166 490.563141,768.257080 470.248993,811.039307 
	C446.502777,861.049622 428.105652,913.008057 415.230194,966.878601 
	C407.118652,1000.816956 400.662842,1035.062378 397.732361,1069.867554 
	C396.034393,1090.034546 395.031616,1110.260132 393.693939,1130.457764 
	C393.277893,1136.739380 392.285431,1143.026733 392.415802,1149.293579 
	C393.279327,1190.802124 395.466187,1232.176514 401.486969,1273.365601 
	C408.381775,1320.534058 419.232971,1366.710815 434.282806,1411.832397 
	C454.785400,1473.302124 482.355042,1531.530884 516.922546,1586.428955 
	C541.989014,1626.237915 570.535461,1663.378296 601.499695,1698.721680 
	C602.541931,1699.911377 603.507080,1701.168701 605.486511,1703.592529 
	C598.848511,1704.333618 593.469360,1705.224243 588.059692,1705.486816 
	C566.458740,1706.535645 545.078430,1708.947632 523.960388,1713.862305 
	C513.862915,1716.212158 507.734009,1721.353394 505.097412,1731.727539 
	C499.588776,1753.402344 496.965454,1775.405518 495.665955,1797.648193 
	C495.245148,1804.851440 494.413879,1812.030762 493.582275,1821.322510 
	C487.685974,1814.895020 482.821625,1809.773682 478.155457,1804.477783 
	C428.708466,1748.358765 385.262177,1687.968384 349.541016,1622.195801 
	C319.301147,1566.515747 294.463165,1508.535645 275.487518,1447.986084 
	C259.748108,1397.763062 248.076691,1346.669678 240.560455,1294.659546 
	C237.242828,1271.702515 235.308685,1248.500244 233.788849,1225.340820 
	C232.027634,1198.503296 230.013412,1171.559448 230.613632,1144.717651 
	C231.622467,1099.603882 234.795288,1054.602539 241.375473,1009.818604 
	C250.099899,950.441223 263.881866,892.389893 283.275970,835.663330 
	C308.692169,761.322510 342.846680,691.209229 385.482697,625.180969 
	C414.438477,580.338684 446.714417,538.036377 482.722900,498.720215 
	C555.465820,419.295258 638.796448,353.187103 733.346680,301.292938 
	C820.960205,253.206055 913.820374,219.636734 1011.816162,200.577423 
	C1041.434082,194.817001 1071.515381,191.219116 1101.508667,187.685211 
	C1121.593750,185.318710 1141.880615,184.354858 1162.108521,183.589813 
	C1186.708374,182.659424 1211.387573,181.415512 1235.950684,182.382950 
	C1307.807861,185.213089 1378.770996,194.726151 1448.496338,212.967407 
	C1509.497192,228.926224 1568.403076,250.330170 1625.268311,277.595154 
	C1679.765869,303.724915 1731.137207,334.914825 1780.033691,370.361023 
	C1805.635864,388.920715 1817.816040,413.840210 1815.542480,445.098053 
	C1812.675293,484.519043 1781.628296,513.016174 1747.391235,518.161682 
	C1723.744019,521.715576 1702.989380,515.450745 1683.816895,501.359039 
	C1615.747070,451.327576 1541.568237,412.859558 1461.505493,385.936035 
	C1413.531128,369.803192 1364.447266,357.986115 1314.170776,351.830933 
	C1290.474609,348.929901 1266.619263,347.029144 1242.779175,345.688721 
	C1221.206421,344.475739 1199.516602,343.597260 1177.948364,344.415802 
	C1132.793701,346.129456 1087.912231,351.055023 1043.604248,360.245453 
	C984.799133,372.442932 927.957031,390.699554 873.170532,415.424957 
	C804.787903,446.286346 741.872437,485.829193 684.482300,534.052246 
	C630.728088,579.220215 583.255371,630.295715 542.266602,688.268005 
M637.832092,398.770569 
	C589.820312,434.878662 545.404724,474.992157 505.052399,519.475830 
	C468.999207,559.220215 436.448761,601.691467 407.653656,647.048828 
	C360.638306,721.106262 324.426697,800.028992 299.670044,884.194397 
	C285.866089,931.123779 276.080627,978.848572 269.423157,1027.341187 
	C264.083252,1066.236694 262.397583,1105.322144 260.487183,1144.417358 
	C259.921967,1155.983521 261.102081,1167.648682 261.719513,1179.255981 
	C262.953888,1202.462402 264.077789,1225.680176 265.748169,1248.857056 
	C268.162231,1282.353638 273.560699,1315.479614 280.527557,1348.276123 
	C300.355682,1441.616943 333.025940,1530.210449 379.657928,1613.605103 
	C404.405792,1657.863159 432.303284,1699.959473 463.873993,1739.625366 
	C465.763000,1741.998779 467.043427,1745.352661 470.603729,1745.751709 
	C473.070435,1736.272583 475.246613,1727.266968 477.768616,1718.359253 
	C482.280334,1702.424072 492.216766,1691.655762 508.432495,1687.206909 
	C515.151123,1685.363647 521.910217,1683.657349 528.686157,1682.036377 
	C533.666321,1680.844971 538.703857,1679.893311 544.271667,1678.717407 
	C543.049255,1676.616699 542.480652,1675.439209 541.734863,1674.387451 
	C525.962585,1652.141113 509.491180,1630.355225 494.525482,1607.579834 
	C464.833099,1562.392944 440.659363,1514.223511 420.959198,1463.905640 
	C401.651123,1414.589355 387.190460,1363.872314 377.287048,1311.749878 
	C367.893188,1262.309326 364.069550,1212.431763 362.419342,1162.299683 
	C362.081726,1152.043213 363.595245,1141.738281 363.596771,1131.455688 
	C363.601624,1098.822144 367.134613,1066.515381 371.641266,1034.256470 
	C378.420441,985.730713 389.808105,938.286926 405.238861,891.844482 
	C421.640747,842.479370 442.568573,795.082092 467.785858,749.517700 
	C502.142090,687.440308 543.805481,630.743530 592.321655,579.122314 
	C616.263550,553.648071 641.793945,529.763672 668.801941,507.461365 
	C748.970276,441.260864 838.187744,391.304688 936.581482,357.812164 
	C981.043274,342.677704 1026.561157,331.585846 1072.956177,324.285461 
	C1110.062012,318.446777 1147.434814,314.952118 1184.989380,314.300629 
	C1204.928345,313.954742 1224.908813,314.680145 1244.839722,315.593903 
	C1262.403564,316.399139 1279.951172,317.857758 1297.459351,319.519409 
	C1344.233521,323.958649 1390.079346,333.342316 1435.235840,346.182434 
	C1494.661865,363.080017 1551.488159,386.323425 1605.769165,415.863068 
	C1640.038940,434.512482 1672.773315,455.509949 1704.226929,478.565308 
	C1715.645630,486.935272 1728.307251,490.929291 1742.614990,488.176727 
	C1763.922119,484.077576 1778.004028,471.599792 1783.891724,450.892151 
	C1789.777710,430.191010 1782.538696,409.928497 1764.720581,397.214722 
	C1744.140503,382.530365 1723.360962,368.059143 1702.009033,354.535919 
	C1642.448975,316.813599 1579.069214,286.909241 1512.446045,263.880951 
	C1466.821045,248.110672 1420.253296,236.049973 1372.751343,227.308304 
	C1326.275757,218.755524 1279.404175,214.082306 1232.284668,212.403152 
	C1197.396484,211.159882 1162.490967,212.498062 1127.621582,215.347763 
	C1090.835205,218.354095 1054.345215,223.114395 1018.137085,230.118500 
	C938.018982,245.616577 861.315308,271.447876 787.974915,307.137024 
	C735.471436,332.686432 685.884338,363.119751 637.832092,398.770569 
z"/>
<path fill="#020101" opacity="1.000000" stroke="none" 
	d="
M2478.552734,636.485901 
	C2486.082031,609.180359 2493.933838,582.786743 2500.406006,556.059021 
	C2503.187988,544.571228 2503.927734,532.403625 2504.123535,520.520569 
	C2504.382080,504.828094 2496.401611,494.799286 2480.880127,491.298096 
	C2466.395996,488.030945 2451.580322,486.233276 2435.598145,483.570038 
	C2436.709717,479.818604 2438.046875,475.305298 2439.593750,470.084503 
	C2442.968506,470.084503 2445.882812,470.084503 2448.797119,470.084503 
	C2518.460693,470.084503 2588.143066,469.093536 2657.781006,470.424591 
	C2706.118896,471.348511 2753.683838,478.802307 2798.305420,499.301727 
	C2835.827393,516.539246 2864.523438,543.223755 2884.099365,579.510010 
	C2900.422119,609.766541 2908.196289,642.274475 2910.587158,676.585327 
	C2913.343262,716.138916 2910.020264,754.733398 2897.867920,792.487610 
	C2889.728516,817.774780 2875.615234,839.904602 2860.782227,861.613403 
	C2838.722412,893.898315 2813.141846,922.929871 2782.668945,947.661987 
	C2746.399414,977.098877 2705.281250,996.433289 2660.239258,1007.732971 
	C2621.425537,1017.470215 2581.970947,1022.213623 2541.906738,1022.138916 
	C2463.910645,1021.993408 2385.913818,1022.096252 2307.917480,1022.096252 
	C2304.275635,1022.096252 2300.633789,1022.096191 2296.143799,1022.096191 
	C2297.879150,1016.990662 2299.350586,1012.660767 2301.261719,1007.037109 
	C2306.744385,1007.037109 2312.337891,1007.436523 2317.858887,1006.971924 
	C2351.892090,1004.108154 2374.696777,986.109375 2386.017578,954.260376 
	C2393.780029,932.422302 2400.594971,910.214050 2406.990234,887.929321 
	C2430.953369,804.427612 2454.570068,720.826416 2478.552734,636.485901 
M2551.633057,814.507446 
	C2541.019287,851.118591 2530.239014,887.682739 2519.890625,924.368713 
	C2516.664307,935.806335 2514.383301,947.529602 2512.082764,959.203552 
	C2510.212158,968.696106 2514.146729,976.096008 2521.767578,981.643860 
	C2528.644287,986.649963 2536.543945,989.568909 2544.877686,989.896973 
	C2561.149170,990.537354 2577.382568,990.385864 2593.489746,986.685425 
	C2626.650146,979.067200 2654.025146,961.566223 2677.942871,938.145508 
	C2708.820068,907.910095 2731.111572,871.973816 2746.564209,831.795471 
	C2767.947266,776.197021 2780.048828,718.997681 2776.472656,658.959839 
	C2774.858398,631.860291 2770.371582,605.505493 2759.406738,580.672546 
	C2744.101074,546.007874 2720.023193,520.150513 2682.606445,509.134735 
	C2668.944824,505.112579 2654.919922,502.729675 2640.521729,504.674500 
	C2631.664551,535.405396 2622.936279,565.671570 2614.219238,595.940918 
	C2605.503174,626.205200 2596.797852,656.472534 2588.088623,686.738708 
	C2575.987793,728.792480 2563.887451,770.846558 2551.633057,814.507446 
z"/>
<path fill="#020101" opacity="1.000000" stroke="none" 
	d="
M3666.028076,1603.975098 
	C3652.531982,1650.963135 3639.121338,1697.129150 3626.077393,1743.398560 
	C3622.392578,1756.468384 3619.306152,1769.697876 3619.558350,1783.546875 
	C3619.791748,1796.372192 3625.823242,1804.929932 3636.994629,1810.225098 
	C3648.317627,1815.592041 3660.635986,1816.296387 3672.857178,1817.229492 
	C3676.166016,1817.482178 3679.510498,1817.268066 3684.229004,1817.268066 
	C3682.403320,1822.321899 3680.802490,1826.753662 3679.056641,1831.586914 
	C3590.317383,1831.586914 3501.772949,1831.586914 3412.197021,1831.586914 
	C3413.913574,1826.768555 3415.517822,1822.264648 3417.059082,1817.937988 
	C3425.006592,1817.279297 3432.252197,1816.766235 3439.479492,1816.064331 
	C3465.856201,1813.502808 3483.330078,1799.205444 3493.937256,1775.326904 
	C3504.085693,1752.481445 3510.320801,1728.389893 3517.179443,1704.507812 
	C3548.025146,1597.098999 3578.750977,1489.655273 3609.312256,1382.165039 
	C3613.829346,1366.277344 3618.166260,1350.330811 3618.638184,1333.522949 
	C3619.145020,1315.450439 3613.034912,1305.179810 3595.550537,1300.477173 
	C3584.124756,1297.404175 3572.227295,1296.084229 3559.712402,1293.829834 
	C3560.697266,1289.874756 3561.781250,1285.520020 3562.974854,1280.726074 
	C3565.521484,1280.493408 3567.757568,1280.111084 3569.993896,1280.110352 
	C3652.636230,1280.079712 3735.283691,1279.566284 3817.918213,1280.365967 
	C3846.814941,1280.645630 3875.620361,1284.835693 3902.515381,1296.629028 
	C3941.408936,1313.683594 3964.625977,1342.984131 3970.361572,1385.510376 
	C3975.812256,1425.924072 3962.927490,1460.565552 3937.657471,1491.590820 
	C3920.557861,1512.584839 3898.561279,1526.362305 3873.800781,1536.047729 
	C3858.671387,1541.965576 3843.133301,1546.837158 3827.799805,1552.238159 
	C3825.970703,1552.882446 3824.272949,1553.899048 3822.137207,1554.923950 
	C3830.213379,1582.209229 3838.093750,1609.207275 3846.201904,1636.136963 
	C3858.160400,1675.857300 3870.085938,1715.589844 3882.463379,1755.180298 
	C3885.722168,1765.604004 3890.471436,1775.574829 3894.744629,1785.665283 
	C3902.696289,1804.442261 3917.967529,1813.143433 3937.292236,1815.970459 
	C3943.163086,1816.829590 3949.096924,1817.260132 3955.312988,1817.919922 
	C3955.312988,1822.415405 3955.312988,1826.641968 3955.312988,1831.487061 
	C3897.744385,1831.487061 3840.262207,1831.487061 3782.462158,1831.487061 
	C3756.664062,1742.302490 3730.893066,1653.212036 3705.028320,1563.796997 
	C3695.690918,1563.796997 3686.844238,1563.796997 3677.486084,1563.796997 
	C3673.683594,1577.132202 3669.968262,1590.162231 3666.028076,1603.975098 
M3823.459229,1472.433838 
	C3825.586426,1468.307861 3827.923340,1464.275146 3829.806641,1460.040649 
	C3841.728760,1433.234131 3844.057617,1404.953857 3841.866211,1376.165527 
	C3840.980225,1364.523315 3837.423096,1353.366943 3830.733643,1343.611450 
	C3812.186279,1316.562744 3784.790771,1309.186401 3748.905762,1314.784424 
	C3727.361816,1388.967041 3705.834229,1463.094604 3684.054199,1538.090210 
	C3694.279541,1538.090210 3703.557861,1538.252197 3712.828857,1538.063110 
	C3761.418701,1537.072021 3797.507812,1514.672241 3823.459229,1472.433838 
z"/>
<path fill="#020202" opacity="1.000000" stroke="none" 
	d="
M3318.509033,950.575684 
	C3351.453613,932.197876 3379.446533,908.783386 3403.103271,880.554504 
	C3410.490479,871.739319 3418.071045,869.770325 3429.437256,872.234375 
	C3410.500977,922.128296 3391.631592,971.845520 3372.694092,1021.742432 
	C3215.094482,1021.742432 3057.896973,1021.742432 2899.887207,1021.742432 
	C2901.610596,1016.656799 2903.161621,1012.079041 2904.341309,1008.597534 
	C2916.953125,1006.916321 2928.557129,1006.029297 2939.866455,1003.706177 
	C2956.592285,1000.270203 2969.406250,990.990906 2978.173828,975.956970 
	C2988.146240,958.856750 2994.473389,940.364319 2999.858643,921.532288 
	C3033.499023,803.892212 3066.994873,686.210693 3100.472412,568.524048 
	C3105.008789,552.576233 3109.262695,536.602539 3109.792480,519.798706 
	C3110.170654,507.818085 3102.229736,494.008911 3088.483887,491.061676 
	C3075.893311,488.362122 3063.171387,486.276031 3049.508057,483.733765 
	C3048.636963,479.624542 3052.584961,475.703003 3052.634766,470.582581 
	C3200.666016,470.582581 3347.851562,470.582581 3496.231689,470.582581 
	C3484.446533,516.294983 3472.738281,561.708435 3460.916260,607.563843 
	C3455.523438,607.563843 3450.375244,607.563843 3445.264404,607.563843 
	C3444.003906,596.778137 3443.456055,586.166687 3441.422607,575.847900 
	C3436.237549,549.534241 3419.511719,531.890198 3396.983154,518.905945 
	C3378.631104,508.328735 3358.249268,504.718201 3337.707275,503.585266 
	C3307.507812,501.919678 3277.213135,501.979492 3246.958008,501.332764 
	C3245.654785,501.304932 3244.345459,501.562012 3242.057129,501.779785 
	C3222.070557,572.355164 3202.053955,643.036255 3181.599365,715.263794 
	C3186.188965,715.263794 3189.712891,715.389709 3193.225098,715.241882 
	C3207.822021,714.627563 3222.495605,714.656311 3236.988525,713.063965 
	C3252.103271,711.403320 3267.299805,709.150757 3282.003662,705.376892 
	C3308.869873,698.481628 3329.390625,681.987488 3344.880615,659.290771 
	C3351.986572,648.878723 3358.275391,637.909119 3365.366455,626.497803 
	C3369.376221,626.497803 3374.270264,626.497803 3380.651123,626.497803 
	C3360.211426,698.077087 3339.887207,769.251526 3319.452881,840.812195 
	C3314.637207,840.812195 3310.081543,840.812195 3304.312988,840.812195 
	C3305.275879,833.006958 3306.251221,825.338928 3307.163086,817.663391 
	C3309.243408,800.145874 3306.666992,783.667297 3294.583496,770.082031 
	C3285.061279,759.376831 3272.744629,752.693604 3258.838135,749.456787 
	C3251.453369,747.738037 3243.819824,746.490906 3236.258789,746.242004 
	C3216.300049,745.584961 3196.319336,745.580566 3176.347168,745.357483 
	C3175.393555,745.346863 3174.435791,745.731445 3172.860596,746.062012 
	C3166.865723,767.181335 3160.783447,788.466736 3154.783447,809.775269 
	C3142.202148,854.457031 3129.617920,899.137939 3117.168945,943.856567 
	C3115.664307,949.261414 3114.644287,954.857666 3114.001953,960.434570 
	C3112.622559,972.410095 3116.885986,979.620178 3128.489014,983.206360 
	C3136.348877,985.635559 3144.644775,987.533081 3152.824219,987.896423 
	C3188.558838,989.483459 3223.885498,986.871765 3258.321289,976.107483 
	C3279.012939,969.639465 3299.052490,961.780273 3318.509033,950.575684 
z"/>
<path fill="#020202" opacity="1.000000" stroke="none" 
	d="
M3302.000000,1280.082153 
	C3363.625244,1280.082153 3424.250732,1280.082153 3485.817139,1280.082153 
	C3473.483398,1328.955811 3461.341309,1377.068726 3449.086914,1425.626709 
	C3443.884521,1425.626709 3438.668213,1425.626709 3433.488525,1425.626709 
	C3431.714355,1413.150635 3430.171387,1400.744385 3428.155273,1388.415649 
	C3421.844238,1349.817993 3398.363037,1326.895996 3361.166016,1318.391235 
	C3344.474121,1314.574829 3327.064453,1313.106567 3309.900879,1312.330078 
	C3284.304443,1311.172241 3258.637695,1311.565552 3233.000732,1311.309204 
	C3229.700684,1311.276245 3226.400391,1311.304688 3222.171875,1311.304688 
	C3202.449951,1380.015381 3182.823486,1448.393188 3162.820801,1518.081543 
	C3174.375732,1518.081543 3184.889648,1518.397583 3195.376465,1517.997192 
	C3206.964111,1517.554688 3218.583252,1516.932007 3230.089844,1515.559814 
	C3277.251709,1509.935425 3311.108154,1484.867676 3333.729492,1443.725830 
	C3335.329590,1440.815552 3336.748779,1437.805664 3338.418701,1434.513916 
	C3343.998779,1434.513916 3349.547363,1434.513916 3355.808838,1434.513916 
	C3335.038086,1507.212891 3314.387207,1579.492065 3293.738525,1651.763672 
	C3287.786621,1651.763672 3282.524902,1651.763672 3276.659424,1651.763672 
	C3277.847412,1642.352173 3279.442139,1633.358398 3280.028076,1624.299438 
	C3281.142822,1607.067505 3279.029297,1590.432983 3268.162109,1576.093994 
	C3259.556152,1564.738281 3248.308838,1557.863037 3234.048096,1555.821899 
	C3208.004883,1552.094849 3181.846191,1550.961792 3154.565430,1551.401489 
	C3151.116455,1563.021484 3147.537354,1574.611450 3144.236572,1586.280151 
	C3128.800781,1640.846313 3113.398926,1695.421875 3098.092285,1750.024292 
	C3095.043457,1760.899780 3092.968750,1771.887207 3094.117920,1783.385864 
	C3095.611328,1798.333862 3103.245361,1808.386963 3117.500977,1812.258911 
	C3127.309326,1814.922974 3137.610352,1815.904419 3147.750244,1817.160400 
	C3152.625977,1817.764404 3157.638428,1817.264526 3163.725342,1817.264526 
	C3162.019531,1822.695923 3160.614990,1827.167969 3159.159668,1831.801880 
	C3067.177002,1831.801880 2975.607422,1831.801880 2883.123535,1831.801880 
	C2884.421631,1826.987183 2885.586670,1822.666382 2886.849365,1817.983521 
	C2895.338379,1817.309814 2903.576172,1817.078613 2911.682129,1815.922852 
	C2927.510742,1813.666138 2942.763672,1808.812012 2952.327393,1795.288452 
	C2959.526855,1785.107544 2965.614990,1773.642334 2969.732178,1761.885254 
	C2977.940674,1738.446045 2984.763672,1714.501709 2991.613037,1690.609497 
	C3020.300049,1590.540405 3048.883789,1490.441528 3077.251465,1390.281494 
	C3082.215332,1372.755981 3086.446045,1354.985229 3090.121582,1337.143677 
	C3093.304932,1321.692017 3085.696045,1307.380127 3070.718506,1302.232422 
	C3059.890137,1298.510620 3048.135010,1297.460327 3036.769043,1295.348145 
	C3034.250244,1294.880127 3031.629883,1294.956787 3028.195068,1294.724121 
	C3029.586182,1289.692383 3030.789062,1285.341431 3032.242920,1280.082153 
	C3121.949463,1280.082153 3211.474609,1280.082153 3302.000000,1280.082153 
z"/>
<path fill="#020101" opacity="1.000000" stroke="none" 
	d="
M2789.671875,1467.712036 
	C2788.571045,1489.863770 2787.416992,1511.047607 2786.396484,1532.238037 
	C2786.012939,1540.205566 2785.970459,1548.189087 2785.716797,1556.163574 
	C2785.051514,1577.078613 2784.524170,1597.999878 2783.624512,1618.905029 
	C2782.741211,1639.434326 2781.417236,1659.944458 2780.391602,1680.468262 
	C2780.009766,1688.109009 2779.876221,1695.763428 2779.711670,1703.413452 
	C2779.232422,1725.683960 2778.391602,1747.958740 2778.567871,1770.224854 
	C2778.627197,1777.689819 2780.396973,1785.477295 2783.007812,1792.515503 
	C2788.265625,1806.689331 2800.407959,1812.750366 2814.250732,1815.969238 
	C2818.036621,1816.849609 2821.938965,1817.229736 2826.494629,1817.951416 
	C2825.048584,1822.847900 2823.774658,1827.162354 2822.434814,1831.699707 
	C2742.373047,1831.699707 2662.836670,1831.699707 2582.731934,1831.699707 
	C2584.181152,1827.027954 2585.537109,1822.656982 2586.983643,1817.994141 
	C2597.661377,1816.654541 2608.113525,1815.283569 2618.581543,1814.048218 
	C2627.320557,1813.016846 2633.863281,1808.762573 2639.500488,1801.974731 
	C2651.778076,1787.191162 2655.801270,1769.573486 2657.611816,1751.272461 
	C2659.047607,1736.758057 2659.407715,1722.139282 2660.346680,1707.573364 
	C2661.389648,1691.386475 2662.559814,1675.207764 2663.630615,1659.022583 
	C2663.715088,1657.748657 2663.452881,1656.451904 2663.304443,1654.563110 
	C2660.217773,1654.401611 2657.303223,1654.117798 2654.388672,1654.116211 
	C2604.071045,1654.088989 2553.752930,1654.199463 2503.436523,1653.964600 
	C2497.230957,1653.935669 2493.234863,1655.612793 2489.201416,1660.598267 
	C2466.870117,1688.200684 2444.011475,1715.375977 2421.455566,1742.797852 
	C2412.312744,1753.912842 2404.914062,1766.124390 2401.055420,1780.105957 
	C2397.359619,1793.498657 2402.024414,1804.976929 2414.760498,1810.653442 
	C2423.664062,1814.621826 2433.557617,1816.369507 2443.846191,1819.351562 
	C2443.846191,1822.174805 2443.846191,1826.404053 2443.846191,1831.368408 
	C2389.425293,1831.368408 2334.688232,1831.368408 2279.225342,1831.368408 
	C2280.357178,1826.913086 2281.469727,1822.533936 2282.635010,1817.947021 
	C2286.684814,1816.951172 2290.548828,1816.111450 2294.349609,1815.047363 
	C2311.111084,1810.354614 2325.326416,1801.238525 2337.211182,1788.797852 
	C2353.276367,1771.981201 2369.446777,1755.193237 2384.439941,1737.437256 
	C2439.253418,1672.524170 2493.588135,1607.206787 2548.121094,1542.057007 
	C2590.717773,1491.167236 2633.309082,1440.272827 2675.963867,1389.431396 
	C2708.182861,1351.028564 2740.603760,1312.793823 2772.630859,1274.231934 
	C2776.479248,1269.598511 2780.219238,1267.411377 2786.060059,1268.016235 
	C2789.605469,1268.383423 2793.219971,1268.083984 2797.626709,1268.083984 
	C2797.099121,1281.509033 2796.624023,1294.010620 2796.112793,1306.510864 
	C2795.312256,1326.082031 2794.540527,1345.654663 2793.658447,1365.222290 
	C2792.612793,1388.418823 2791.379150,1411.607056 2790.396973,1434.806030 
	C2789.946533,1445.444092 2789.901123,1456.099365 2789.671875,1467.712036 
M2602.297852,1527.265869 
	C2577.049805,1557.650024 2550.695557,1587.121948 2525.089600,1618.614014 
	C2572.303955,1618.614014 2617.718506,1618.614014 2663.537598,1618.614014 
	C2666.994385,1560.855591 2670.411865,1503.756226 2673.944824,1444.728149 
	C2670.587402,1448.030396 2668.393311,1449.894775 2666.542725,1452.053833 
	C2645.393555,1476.728149 2624.296631,1501.447388 2602.297852,1527.265869 
z"/>
<path fill="#020202" opacity="1.000000" stroke="none" 
	d="
M3625.655273,743.636841 
	C3626.545898,713.789368 3627.380859,684.903015 3628.348877,656.021240 
	C3628.893799,639.758850 3629.725098,623.506165 3630.307861,607.244812 
	C3631.045410,586.663452 3631.742188,566.079895 3632.290771,545.492859 
	C3632.518555,536.948792 3632.980469,528.329712 3632.169189,519.856445 
	C3630.547363,502.919067 3621.433350,492.582550 3604.848145,488.263855 
	C3597.897217,486.453827 3590.699951,485.589447 3582.871582,484.159393 
	C3584.288086,479.630310 3585.648193,475.282349 3587.119141,470.579773 
	C3664.692627,470.579773 3741.903809,470.579773 3820.279053,470.579773 
	C3818.783447,475.579559 3817.344482,480.389893 3816.097168,484.560028 
	C3809.054688,485.386108 3802.983643,485.467224 3797.242920,486.885834 
	C3777.133057,491.855255 3765.052490,505.502930 3760.692871,525.055237 
	C3757.175537,540.829102 3754.903320,557.045044 3753.891602,573.178528 
	C3751.836426,605.953796 3751.068604,638.808655 3749.653320,671.625610 
	C3748.410156,700.451111 3746.984131,729.268616 3745.681396,758.091614 
	C3744.318115,788.266052 3743.043213,818.444519 3741.625000,848.616333 
	C3741.440918,852.539246 3740.633057,856.432922 3741.446045,861.200134 
	C3746.201904,855.933594 3751.071045,850.764648 3755.696045,845.385376 
	C3810.225098,781.960815 3864.795166,718.570923 3919.184570,655.026428 
	C3942.916260,627.300232 3966.551514,599.480164 3989.652832,571.230042 
	C4001.017090,557.332825 4010.706787,542.279236 4014.758301,524.175659 
	C4018.229004,508.667725 4012.386719,497.867859 3999.609619,492.365509 
	C3991.456787,488.854614 3982.708496,486.727295 3973.057129,483.600616 
	C3974.527832,479.795929 3976.247314,475.347382 3978.095215,470.566650 
	C4029.205811,470.566650 4080.004639,470.566650 4131.239258,470.566650 
	C4131.239258,475.192566 4131.239258,479.423920 4131.239258,484.210815 
	C4125.734375,486.322449 4119.845703,488.342194 4114.152344,490.811249 
	C4099.126465,497.327576 4087.543457,508.514099 4076.980225,520.428772 
	C4045.484375,555.955383 4014.439453,591.883972 3983.397217,627.809692 
	C3939.777588,678.291870 3896.339600,728.931152 3852.784912,779.469421 
	C3804.890137,835.043213 3756.930420,890.561096 3709.039795,946.138428 
	C3686.724854,972.034973 3664.194580,997.757141 3642.436523,1024.115234 
	C3636.054199,1031.846802 3629.360107,1035.607178 3619.615479,1034.113037 
	C3618.309082,1033.912720 3616.969727,1033.929077 3614.327393,1033.761475 
	C3614.327393,1027.897583 3614.113037,1022.031311 3614.373047,1016.186157 
	C3614.874512,1004.919556 3615.781982,993.670837 3616.270508,982.403870 
	C3617.061523,964.166138 3617.580322,945.916687 3618.341309,927.677551 
	C3619.378906,902.821899 3620.572754,877.972717 3621.622070,853.117554 
	C3621.972900,844.807495 3622.063965,836.486816 3622.310791,828.172058 
	C3622.971191,805.915039 3623.597900,783.656799 3624.361816,761.403259 
	C3624.554688,755.793945 3625.211670,750.200562 3625.655273,743.636841 
z"/>
<path fill="#020101" opacity="1.000000" stroke="none" 
	d="
M4270.179199,1444.202759 
	C4256.467285,1492.838623 4242.881348,1540.671631 4229.300781,1588.506104 
	C4213.999023,1642.403320 4198.614258,1696.277466 4183.471680,1750.219482 
	C4180.252441,1761.688477 4177.249512,1773.238281 4177.565430,1785.419312 
	C4177.791504,1794.151611 4181.033203,1801.314575 4188.220215,1805.636230 
	C4194.360840,1809.328369 4201.321777,1812.341064 4208.306641,1813.789185 
	C4219.570801,1816.124634 4231.152344,1816.927002 4243.727539,1818.519531 
	C4242.450684,1822.849365 4241.116211,1827.375122 4239.779785,1831.906738 
	C4148.291504,1831.906738 4057.377197,1831.906738 3965.131348,1831.906738 
	C3966.479248,1826.922119 3967.693848,1822.430420 3968.904541,1817.953613 
	C3977.094482,1817.296021 3984.655029,1816.769775 3992.199219,1816.068726 
	C4020.127686,1813.473389 4038.547852,1798.341553 4049.565430,1773.015259 
	C4060.188721,1748.594116 4066.795654,1722.898560 4074.123047,1697.438843 
	C4104.651367,1591.363037 4135.112793,1485.267456 4165.340820,1379.105591 
	C4169.873047,1363.189331 4174.671387,1347.202271 4174.360352,1330.301147 
	C4174.075195,1314.838501 4167.396973,1305.022095 4152.154297,1301.327515 
	C4139.976562,1298.375732 4127.360840,1297.222900 4114.931641,1295.325439 
	C4113.326660,1295.080200 4111.672363,1295.158325 4108.978516,1295.039917 
	C4110.331543,1289.867798 4111.537109,1285.260498 4112.809570,1280.396484 
	C4203.013184,1280.396484 4292.916992,1280.396484 4383.851562,1280.396484 
	C4381.977539,1285.399780 4380.280762,1289.928955 4378.248047,1295.355957 
	C4373.133789,1295.355957 4368.191895,1294.938354 4363.340332,1295.425537 
	C4337.019043,1298.068481 4316.273926,1309.550415 4305.498535,1334.696167 
	C4298.986816,1349.892578 4293.388672,1365.541382 4288.372070,1381.302734 
	C4281.836426,1401.838257 4276.283691,1422.686768 4270.179199,1444.202759 
z"/>
<path fill="#28AB6B" opacity="1.000000" stroke="none" 
	d="
M1743.598999,1488.010742 
	C1757.008301,1489.093140 1759.962524,1492.329956 1760.384888,1504.468018 
	C1760.684204,1513.072632 1761.609985,1521.653564 1762.112061,1530.253540 
	C1762.318237,1533.783203 1762.146240,1537.334839 1762.146240,1541.546631 
	C1756.342407,1541.936523 1751.809204,1542.241089 1746.570312,1542.593018 
	C1746.373291,1544.772705 1746.001953,1546.950928 1746.011353,1549.127563 
	C1746.042847,1556.447388 1746.021118,1563.775879 1746.380005,1571.083374 
	C1746.714966,1577.910034 1745.291504,1584.062744 1742.261719,1590.277588 
	C1740.017456,1594.881470 1739.738770,1600.410889 1738.266113,1605.434692 
	C1737.177368,1609.149536 1736.069458,1613.006958 1734.117798,1616.295044 
	C1725.654297,1630.554565 1716.733643,1644.543823 1708.346069,1658.846436 
	C1706.801147,1661.480957 1706.294556,1665.147461 1706.463867,1668.275146 
	C1706.804443,1674.572388 1705.189453,1679.980957 1701.644043,1685.118652 
	C1698.628662,1689.488159 1696.223877,1694.275146 1693.284058,1698.701538 
	C1687.081055,1708.040894 1678.930542,1714.104980 1667.106689,1714.194458 
	C1660.027100,1714.247925 1652.951660,1714.845825 1644.990845,1715.243164 
	C1647.668213,1701.107300 1650.199463,1686.078613 1644.688721,1671.214478 
	C1641.957397,1671.440063 1638.799072,1671.700806 1633.997803,1672.097168 
	C1635.471802,1659.515747 1636.462402,1647.756836 1638.508911,1636.184937 
	C1638.956299,1633.655884 1642.991699,1631.528442 1645.695557,1629.687256 
	C1649.595215,1627.031860 1651.492554,1623.646240 1651.724731,1618.922974 
	C1652.474121,1603.679077 1653.811279,1588.453369 1654.128296,1573.204102 
	C1654.266846,1566.540771 1655.407959,1561.333252 1660.421387,1556.383423 
	C1668.914673,1547.997803 1676.534668,1538.727295 1684.516724,1529.824219 
	C1688.345825,1525.553467 1692.609497,1522.088745 1698.392944,1520.604004 
	C1701.574951,1519.786987 1704.425659,1517.725342 1707.593750,1516.800049 
	C1721.911865,1512.617554 1728.385986,1501.478271 1733.309814,1487.920654 
	C1736.269043,1487.920654 1739.500366,1487.920654 1743.598999,1488.010742 
z"/>
<path fill="#FBFBFB" opacity="1.000000" stroke="none" 
	d="
M5213.676758,1589.354858 
	C5212.870605,1599.508057 5212.066895,1608.719971 5211.204590,1618.610229 
	C5165.749023,1618.610229 5120.355469,1618.610229 5073.268555,1618.610229 
	C5089.108398,1598.271118 5105.856445,1579.837402 5121.846680,1560.801025 
	C5138.048340,1541.512939 5154.514160,1522.446289 5170.870605,1503.288330 
	C5187.187012,1484.177612 5203.511230,1465.073608 5221.651855,1446.509155 
	C5221.193359,1456.122070 5220.801270,1465.738647 5220.264160,1475.347168 
	C5218.767090,1502.133789 5217.222168,1528.917847 5215.671875,1555.701416 
	C5215.040039,1566.607422 5214.344727,1577.509644 5213.676758,1589.354858 
z"/>
<path fill="#FFFFFF" opacity="1.000000" stroke="none" 
	d="
M4574.086426,1522.122559 
	C4573.692871,1522.440186 4573.348145,1522.827881 4573.003418,1523.215576 
	C4573.125977,1522.654419 4573.249023,1522.093262 4573.793945,1521.938232 
	C4574.215332,1522.344116 4574.135254,1522.192871 4574.086426,1522.122559 
z"/>
<path fill="#FEFFFE" opacity="1.000000" stroke="none" 
	d="
M638.436401,398.384491 
	C685.884338,363.119751 735.471436,332.686432 787.974915,307.137024 
	C861.315308,271.447876 938.018982,245.616577 1018.137085,230.118500 
	C1054.345215,223.114395 1090.835205,218.354095 1127.621582,215.347763 
	C1162.490967,212.498062 1197.396484,211.159882 1232.284668,212.403152 
	C1279.404175,214.082306 1326.275757,218.755524 1372.751343,227.308304 
	C1420.253296,236.049973 1466.821045,248.110672 1512.446045,263.880951 
	C1579.069214,286.909241 1642.448975,316.813599 1702.009033,354.535919 
	C1723.360962,368.059143 1744.140503,382.530365 1764.720581,397.214722 
	C1782.538696,409.928497 1789.777710,430.191010 1783.891724,450.892151 
	C1778.004028,471.599792 1763.922119,484.077576 1742.614990,488.176727 
	C1728.307251,490.929291 1715.645630,486.935272 1704.226929,478.565308 
	C1672.773315,455.509949 1640.038940,434.512482 1605.769165,415.863068 
	C1551.488159,386.323425 1494.661865,363.080017 1435.235840,346.182434 
	C1390.079346,333.342316 1344.233521,323.958649 1297.459351,319.519409 
	C1279.951172,317.857758 1262.403564,316.399139 1244.839722,315.593903 
	C1224.908813,314.680145 1204.928345,313.954742 1184.989380,314.300629 
	C1147.434814,314.952118 1110.062012,318.446777 1072.956177,324.285461 
	C1026.561157,331.585846 981.043274,342.677704 936.581482,357.812164 
	C838.187744,391.304688 748.970276,441.260864 668.801941,507.461365 
	C641.793945,529.763672 616.263550,553.648071 592.321655,579.122314 
	C543.805481,630.743530 502.142090,687.440308 467.785858,749.517700 
	C442.568573,795.082092 421.640747,842.479370 405.238861,891.844482 
	C389.808105,938.286926 378.420441,985.730713 371.641266,1034.256470 
	C367.134613,1066.515381 363.601624,1098.822144 363.596771,1131.455688 
	C363.595245,1141.738281 362.081726,1152.043213 362.419342,1162.299683 
	C364.069550,1212.431763 367.893188,1262.309326 377.287048,1311.749878 
	C387.190460,1363.872314 401.651123,1414.589355 420.959198,1463.905640 
	C440.659363,1514.223511 464.833099,1562.392944 494.525482,1607.579834 
	C509.491180,1630.355225 525.962585,1652.141113 541.734863,1674.387451 
	C542.480652,1675.439209 543.049255,1676.616699 544.271667,1678.717407 
	C538.703857,1679.893311 533.666321,1680.844971 528.686157,1682.036377 
	C521.910217,1683.657349 515.151123,1685.363647 508.432495,1687.206909 
	C492.216766,1691.655762 482.280334,1702.424072 477.768616,1718.359253 
	C475.246613,1727.266968 473.070435,1736.272583 470.603729,1745.751709 
	C467.043427,1745.352661 465.763000,1741.998779 463.873993,1739.625366 
	C432.303284,1699.959473 404.405792,1657.863159 379.657928,1613.605103 
	C333.025940,1530.210449 300.355682,1441.616943 280.527557,1348.276123 
	C273.560699,1315.479614 268.162231,1282.353638 265.748169,1248.857056 
	C264.077789,1225.680176 262.953888,1202.462402 261.719513,1179.255981 
	C261.102081,1167.648682 259.921967,1155.983521 260.487183,1144.417358 
	C262.397583,1105.322144 264.083252,1066.236694 269.423157,1027.341187 
	C276.080627,978.848572 285.866089,931.123779 299.670044,884.194397 
	C324.426697,800.028992 360.638306,721.106262 407.653656,647.048828 
	C436.448761,601.691467 468.999207,559.220215 505.052399,519.475830 
	C545.404724,474.992157 589.820312,434.878662 638.436401,398.384491 
z"/>
<path fill="#FEFEFE" opacity="1.000000" stroke="none" 
	d="
M2551.709961,813.703979 
	C2563.887451,770.846558 2575.987793,728.792480 2588.088623,686.738708 
	C2596.797852,656.472534 2605.503174,626.205200 2614.219238,595.940918 
	C2622.936279,565.671570 2631.664551,535.405396 2640.521729,504.674500 
	C2654.919922,502.729675 2668.944824,505.112579 2682.606445,509.134735 
	C2720.023193,520.150513 2744.101074,546.007874 2759.406738,580.672546 
	C2770.371582,605.505493 2774.858398,631.860291 2776.472656,658.959839 
	C2780.048828,718.997681 2767.947266,776.197021 2746.564209,831.795471 
	C2731.111572,871.973816 2708.820068,907.910095 2677.942871,938.145508 
	C2654.025146,961.566223 2626.650146,979.067200 2593.489746,986.685425 
	C2577.382568,990.385864 2561.149170,990.537354 2544.877686,989.896973 
	C2536.543945,989.568909 2528.644287,986.649963 2521.767578,981.643860 
	C2514.146729,976.096008 2510.212158,968.696106 2512.082764,959.203552 
	C2514.383301,947.529602 2516.664307,935.806335 2519.890625,924.368713 
	C2530.239014,887.682739 2541.019287,851.118591 2551.709961,813.703979 
z"/>
<path fill="#FDFDFD" opacity="1.000000" stroke="none" 
	d="
M3823.071777,1473.060913 
	C3797.507812,1514.672241 3761.418701,1537.072021 3712.828857,1538.063110 
	C3703.557861,1538.252197 3694.279541,1538.090210 3684.054199,1538.090210 
	C3705.834229,1463.094604 3727.361816,1388.967041 3748.905762,1314.784424 
	C3784.790771,1309.186401 3812.186279,1316.562744 3830.733643,1343.611450 
	C3837.423096,1353.366943 3840.980225,1364.523315 3841.866211,1376.165527 
	C3844.057617,1404.953857 3841.728760,1433.234131 3829.806641,1460.040649 
	C3827.923340,1464.275146 3825.586426,1468.307861 3823.071777,1473.060913 
z"/>
<path fill="#FBFBFB" opacity="1.000000" stroke="none" 
	d="
M2602.741699,1526.710205 
	C2624.296631,1501.447388 2645.393555,1476.728149 2666.542725,1452.053833 
	C2668.393311,1449.894775 2670.587402,1448.030396 2673.944824,1444.728149 
	C2670.411865,1503.756226 2666.994385,1560.855591 2663.537598,1618.614014 
	C2617.718506,1618.614014 2572.303955,1618.614014 2525.089600,1618.614014 
	C2550.695557,1587.121948 2577.049805,1557.650024 2602.741699,1526.710205 
z"/>
</svg>